<svg width="100" height="100" viewBox="0 0 100 100" fill="none" xmlns="http://www.w3.org/2000/svg">
<path d="M12.6464 14.3439L12.6482 14.357L12.6507 14.37L16.0439 32.2232L21.9605 70.4937C22.5206 75.0106 26.7583 78.534 31.5956 78.534H88.1755C89.8914 78.534 91.2868 77.3073 91.2868 75.6311C91.2868 73.955 89.8914 72.7282 88.1755 72.7282H31.5956C29.9225 72.7282 28.3247 71.3068 28.1763 69.737L28.1749 69.7223L28.1727 69.7078L22.2536 31.3412L22.2523 31.3326L22.2506 31.3241L18.8579 13.4734C18.2042 8.96332 13.8836 5.44653 9.05072 5.44653H4.61138C2.89543 5.44653 1.5 6.67331 1.5 8.34945C1.5 10.0256 2.89543 11.2524 4.61138 11.2524H9.05072C10.8063 11.2524 12.4195 12.6731 12.6464 14.3439ZM82.9527 56.7088H82.9358L82.9189 56.7099L35.6688 59.9127C34.9133 59.9188 34.0943 60.3049 33.5752 60.878C33.0689 61.4371 32.7344 62.2128 32.8389 63.0262C32.9549 64.6001 34.3385 65.7185 35.9479 65.7185H35.9531C35.9984 65.7185 36.0801 65.7186 36.1799 65.7002C36.2559 65.6862 36.3328 65.6637 36.4143 65.6315L83.3182 62.4345C88.0465 62.4262 92.3691 59.0014 92.9348 54.5636L98.4158 25.7439L98.4188 25.7281L98.4208 25.7121C98.7859 22.7721 97.8759 19.8161 95.9367 17.7768L95.9296 17.7693L95.9222 17.7622C94.1807 16.0753 91.8818 15.0582 89.3071 15.0582H28.9842C27.2683 15.0582 25.8729 16.285 25.8729 17.9611C25.8729 19.6373 27.2683 20.864 28.9842 20.864H89.133C89.9661 20.864 90.6143 21.137 91.1209 21.6698L91.1208 21.6698L91.1275 21.6766C91.8721 22.4303 92.2731 23.7046 92.1207 24.9316L86.6397 53.7513L86.6375 53.7628L86.6359 53.7745C86.4136 55.3427 84.8216 56.7088 82.9527 56.7088ZM74.7056 88.4467C74.7056 91.885 77.6679 94.5535 81.2988 94.5535C84.8379 94.5535 87.8921 91.8894 87.8921 88.4467C87.8921 85.0084 84.9298 82.3399 81.2988 82.3399C77.6679 82.3399 74.7056 85.0084 74.7056 88.4467ZM25.9599 88.4467C25.9599 91.885 28.9222 94.5535 32.5531 94.5535C36.0922 94.5535 39.1463 91.8894 39.1463 88.4467C39.1463 85.0084 36.1841 82.3399 32.5531 82.3399C28.9222 82.3399 25.9599 85.0084 25.9599 88.4467Z" fill="#41C7C7" stroke="#41C7C7"/>
</svg>
