<svg width="100" height="100" viewBox="0 0 100 100" fill="none" xmlns="http://www.w3.org/2000/svg">
<path d="M12.6464 14.3437L12.6482 14.3568L12.6507 14.3698L16.0439 32.223L21.9605 70.4934C22.5206 75.0103 26.7583 78.5338 31.5956 78.5338H88.1755C89.8914 78.5338 91.2868 77.307 91.2868 75.6309C91.2868 73.9547 89.8914 72.728 88.1755 72.728H31.5956C29.9225 72.728 28.3247 71.3066 28.1763 69.7367L28.1749 69.7221L28.1727 69.7076L22.2536 31.341L22.2523 31.3324L22.2506 31.3239L18.8579 13.4731C18.2042 8.96307 13.8836 5.44629 9.05072 5.44629H4.61138C2.89543 5.44629 1.5 6.67306 1.5 8.34921C1.5 10.0253 2.89543 11.2521 4.61138 11.2521H9.05072C10.8063 11.2521 12.4195 12.6729 12.6464 14.3437ZM82.9527 56.7085H82.9358L82.9189 56.7097L35.6688 59.9125C34.9133 59.9185 34.0943 60.3046 33.5752 60.8778C33.0689 61.4368 32.7344 62.2126 32.8389 63.026C32.9549 64.5999 34.3385 65.7182 35.9479 65.7182H35.9531C35.9984 65.7183 36.0801 65.7183 36.1799 65.7C36.2559 65.686 36.3328 65.6634 36.4143 65.6313L83.3182 62.4342C88.0465 62.4259 92.3691 59.0011 92.9348 54.5633L98.4158 25.7436L98.4188 25.7278L98.4208 25.7118C98.7859 22.7719 97.8759 19.8159 95.9367 17.7765L95.9296 17.7691L95.9222 17.7619C94.1807 16.0751 91.8818 15.058 89.3071 15.058H28.9842C27.2683 15.058 25.8729 16.2847 25.8729 17.9609C25.8729 19.637 27.2683 20.8638 28.9842 20.8638H89.133C89.9661 20.8638 90.6143 21.1368 91.1209 21.6695L91.1208 21.6696L91.1275 21.6764C91.8721 22.43 92.2731 23.7044 92.1207 24.9314L86.6397 53.751L86.6375 53.7626L86.6359 53.7743C86.4136 55.3424 84.8216 56.7085 82.9527 56.7085ZM74.7056 88.4464C74.7056 91.8847 77.6679 94.5533 81.2988 94.5533C84.8379 94.5533 87.8921 91.8891 87.8921 88.4464C87.8921 85.0082 84.9298 82.3396 81.2988 82.3396C77.6679 82.3396 74.7056 85.0082 74.7056 88.4464ZM25.9599 88.4464C25.9599 91.8847 28.9222 94.5533 32.5531 94.5533C36.0922 94.5533 39.1463 91.8891 39.1463 88.4464C39.1463 85.0082 36.1841 82.3396 32.5531 82.3396C28.9222 82.3396 25.9599 85.0082 25.9599 88.4464Z" fill="white" stroke="white"/>
</svg>
