<svg width="100" height="100" viewBox="0 0 100 100" fill="none" xmlns="http://www.w3.org/2000/svg">
<path d="M27.4999 31.9987H14C9.04998 31.9987 5 27.9487 5 22.9987V13.9987C5 9.04876 9.04998 4.99878 14 4.99878H27.4999C32.4499 4.99878 36.4999 9.04876 36.4999 13.9987V22.9987C36.4999 27.9487 32.4499 31.9987 27.4999 31.9987Z" fill="#41C7C7"/>
<path d="M89.5999 27.5014H73.4C70.43 27.5014 68 25.0714 68 22.1014V14.9014C68 11.9315 70.43 9.50146 73.4 9.50146H89.5999C92.5699 9.50146 94.9999 11.9315 94.9999 14.9014V22.1014C94.9999 25.0714 92.5699 27.5014 89.5999 27.5014Z" fill="#41C7C7"/>
<path d="M89.5999 61.2514H73.4C70.43 61.2514 68 58.8214 68 55.8514V48.6514C68 45.6815 70.43 43.2515 73.4 43.2515H89.5999C92.5699 43.2515 94.9999 45.6815 94.9999 48.6514V55.8514C94.9999 58.8214 92.5699 61.2514 89.5999 61.2514Z" fill="#41C7C7"/>
<path opacity="0.96" d="M67.9998 55.6263C69.8448 55.6263 71.3748 54.0963 71.3748 52.2513C71.3748 50.4063 69.8448 48.8763 67.9998 48.8763H55.6249V21.8764H67.9998C69.8448 21.8764 71.3748 20.3464 71.3748 18.5015C71.3748 16.6565 69.8448 15.1265 67.9998 15.1265H36.5C34.655 15.1265 33.125 16.6565 33.125 18.5015C33.125 20.3464 34.655 21.8764 36.5 21.8764H48.8749V77.0012C48.8749 83.8412 54.4099 89.3762 61.2499 89.3762H67.9998C69.8448 89.3762 71.3748 87.8462 71.3748 86.0012C71.3748 84.1562 69.8448 82.6262 67.9998 82.6262H61.2499C58.1449 82.6262 55.6249 80.1062 55.6249 77.0012V55.6263H67.9998Z" fill="#41C7C7"/>
<path d="M89.5999 95.0014H73.4C70.43 95.0014 68 92.5714 68 89.6014V82.4014C68 79.4315 70.43 77.0015 73.4 77.0015H89.5999C92.5699 77.0015 94.9999 79.4315 94.9999 82.4014V89.6014C94.9999 92.5714 92.5699 95.0014 89.5999 95.0014Z" fill="#41C7C7"/>
</svg>
