<svg width="100" height="100" viewBox="0 0 100 100" fill="none" xmlns="http://www.w3.org/2000/svg">
<g clip-path="url(#clip0_856_101)">
<path d="M40.6219 8.93356C41.7884 8.93356 42.9072 9.39713 43.732 10.2223C44.5569 11.0475 45.0203 12.1666 45.0203 13.3336V50.0002C45.0203 50.7782 45.3292 51.5243 45.8791 52.0744C46.429 52.6245 47.1748 52.9336 47.9525 52.9336C48.7301 52.9336 49.476 52.6245 50.0259 52.0744C50.5758 51.5243 50.8847 50.7782 50.8847 50.0002V35.14L51.389 35.1165C53.2481 35.0461 55.1247 35.0696 56.1744 35.2749C56.9603 35.4333 57.8986 35.8381 58.8017 36.3426C59.2532 36.589 59.6813 37.205 59.6813 38.1848V50.0002C59.6813 50.7782 59.9903 51.5243 60.5402 52.0744C61.0901 52.6245 61.8359 52.9336 62.6136 52.9336C63.3912 52.9336 64.1371 52.6245 64.687 52.0744C65.2369 51.5243 65.5458 50.7782 65.5458 50.0002V40.8189L66.1674 40.7602C68.0206 40.6194 69.5922 40.7016 70.3194 40.9949C71.0114 41.2648 72.0788 42.2093 73.1696 43.5176C73.6446 44.0808 74.0492 44.6322 74.3424 45.037V52.9336C74.3424 53.7115 74.6514 54.4576 75.2013 55.0077C75.7512 55.5578 76.497 55.8669 77.2747 55.8669C78.0523 55.8669 78.7982 55.5578 79.3481 55.0077C79.8979 54.4576 80.2069 53.7115 80.2069 52.9336V47.0669H82.2125C83.0321 47.0669 83.8426 47.2387 84.5917 47.5714C85.3408 47.904 86.0119 48.39 86.5617 48.9981C87.1115 49.6061 87.5278 50.3227 87.7838 51.1016C88.0397 51.8805 88.1296 52.7044 88.0476 53.5202L86.4584 69.4482C86.2531 71.4952 85.6197 73.476 84.5993 75.2621L76.4184 89.5885C76.1621 90.0375 75.7917 90.4107 75.3447 90.6703C74.8977 90.9299 74.3901 91.0667 73.8733 91.0669H36.9156C36.3715 91.0669 35.8382 90.9154 35.3752 90.6295C34.9122 90.3435 34.538 89.9343 34.2942 89.4477L27.0692 74.9864L12.3378 50.4344C11.9593 49.7996 11.8255 49.0484 11.9616 48.3219C12.0978 47.5954 12.4944 46.9436 13.077 46.4891C13.6596 46.0345 14.388 45.8083 15.1255 45.8532C15.863 45.898 16.5588 46.2107 17.0821 46.7325L31.2154 60.8712C31.6251 61.2821 32.1475 61.5622 32.7165 61.676C33.2854 61.7898 33.8753 61.7322 34.4115 61.5105C34.9477 61.2888 35.4061 60.9129 35.7287 60.4304C36.0512 59.948 36.2235 59.3806 36.2236 58.8002V13.3336C36.2236 12.1666 36.687 11.0475 37.5118 10.2223C38.3367 9.39713 39.4554 8.93356 40.6219 8.93356ZM50.8847 29.2674V13.3336C50.8847 10.6107 49.8034 7.9993 47.8788 6.07393C45.9542 4.14856 43.3438 3.06689 40.6219 3.06689C37.9001 3.06689 35.2897 4.14856 33.3651 6.07393C31.4404 7.9993 30.3592 10.6107 30.3592 13.3336V51.7192L21.2282 42.5848C19.6919 41.0564 17.6509 40.1413 15.4881 40.0114C13.3254 39.8815 11.1895 40.5457 9.48148 41.8792C7.77343 43.2128 6.61056 45.1241 6.21111 47.2544C5.81166 49.3848 6.20309 51.5877 7.31193 53.4498L21.9202 77.8141L29.0455 92.0701C29.7764 93.532 30.8999 94.7613 32.2899 95.6203C33.68 96.4793 35.2817 96.9341 36.9156 96.9336H73.8733C75.4238 96.9331 76.9467 96.5226 78.2876 95.7437C79.6284 94.9648 80.7397 93.8452 81.5088 92.4984L89.6897 78.1778C91.1199 75.6746 92.0071 72.898 92.2935 70.029L93.8827 54.101C94.0458 52.4699 93.8654 50.8227 93.3531 49.2656C92.8409 47.7085 92.0081 46.276 90.9086 45.0606C89.8091 43.8451 88.4672 42.8736 86.9694 42.2087C85.4716 41.5438 83.8512 41.2003 82.2125 41.2002H78.8053C78.4391 40.7036 78.0578 40.2184 77.6617 39.7453C76.5416 38.4018 74.6708 36.413 72.501 35.5448C70.3663 34.6882 67.5397 34.7704 65.71 34.9112L64.9359 34.9816C64.3115 33.3827 63.1504 32.0511 61.6518 31.2152C60.3026 30.4367 58.8434 29.8671 57.3238 29.5256C55.5059 29.1618 52.99 29.1853 51.1662 29.2557L50.8847 29.2674Z" fill="#3D3D3D" stroke="#3D3D3D"/>
</g>
<defs>
<clipPath id="clip0_856_101">
<rect width="90" height="96" fill="white" transform="translate(5 2)"/>
</clipPath>
</defs>
</svg>
