<svg width="100" height="100" viewBox="0 0 100 100" fill="none" xmlns="http://www.w3.org/2000/svg">
<g clip-path="url(#clip0_856_101)">
<path d="M40.6219 8.93332C41.7884 8.93332 42.9072 9.39689 43.732 10.222C44.5569 11.0472 45.0203 12.1664 45.0203 13.3333V50C45.0203 50.778 45.3292 51.5241 45.8791 52.0742C46.429 52.6243 47.1748 52.9333 47.9525 52.9333C48.7301 52.9333 49.476 52.6243 50.0259 52.0742C50.5758 51.5241 50.8847 50.778 50.8847 50V35.1397L51.389 35.1162C53.2481 35.0459 55.1247 35.0693 56.1744 35.2747C56.9603 35.433 57.8986 35.8379 58.8017 36.3424C59.2532 36.5888 59.6813 37.2048 59.6813 38.1845V50C59.6813 50.778 59.9903 51.5241 60.5402 52.0742C61.0901 52.6243 61.8359 52.9333 62.6136 52.9333C63.3912 52.9333 64.1371 52.6243 64.687 52.0742C65.2369 51.5241 65.5458 50.778 65.5458 50V40.8186L66.1674 40.76C68.0206 40.6192 69.5922 40.7013 70.3194 40.9947C71.0114 41.2645 72.0788 42.209 73.1696 43.5173C73.6446 44.0805 74.0492 44.632 74.3424 45.0368V52.9333C74.3424 53.7113 74.6514 54.4574 75.2013 55.0075C75.7512 55.5576 76.497 55.8667 77.2747 55.8667C78.0523 55.8667 78.7982 55.5576 79.3481 55.0075C79.8979 54.4574 80.2069 53.7113 80.2069 52.9333V47.0667H82.2125C83.0321 47.0666 83.8426 47.2385 84.5917 47.5711C85.3408 47.9037 86.0119 48.3898 86.5617 48.9978C87.1115 49.6059 87.5278 50.3225 87.7838 51.1014C88.0397 51.8803 88.1296 52.7042 88.0476 53.52L86.4584 69.448C86.2531 71.4949 85.6197 73.4758 84.5993 75.2618L76.4184 89.5883C76.1621 90.0372 75.7917 90.4104 75.3447 90.67C74.8977 90.9297 74.3901 91.0665 73.8733 91.0667H36.9156C36.3715 91.0666 35.8382 90.9152 35.3752 90.6292C34.9122 90.3433 34.538 89.9341 34.2942 89.4474L27.0692 74.9861L12.3378 50.4341C11.9593 49.7993 11.8255 49.0481 11.9616 48.3216C12.0978 47.5951 12.4944 46.9434 13.077 46.4888C13.6596 46.0342 14.388 45.8081 15.1255 45.8529C15.863 45.8978 16.5588 46.2104 17.0821 46.7323L31.2154 60.8709C31.6251 61.2819 32.1475 61.562 32.7165 61.6758C33.2854 61.7896 33.8753 61.732 34.4115 61.5102C34.9477 61.2885 35.4061 60.9126 35.7287 60.4302C36.0512 59.9477 36.2235 59.3804 36.2236 58.8V13.3333C36.2236 12.1664 36.687 11.0472 37.5118 10.222C38.3367 9.39689 39.4554 8.93332 40.6219 8.93332ZM50.8847 29.2672V13.3333C50.8847 10.6104 49.8034 7.99906 47.8788 6.07369C45.9542 4.14831 43.3438 3.06665 40.6219 3.06665C37.9001 3.06665 35.2897 4.14831 33.3651 6.07369C31.4404 7.99906 30.3592 10.6104 30.3592 13.3333V51.7189L21.2282 42.5845C19.6919 41.0561 17.6509 40.1411 15.4881 40.0112C13.3254 39.8813 11.1895 40.5454 9.48148 41.879C7.77343 43.2125 6.61056 45.1238 6.21111 47.2542C5.81166 49.3845 6.20309 51.5875 7.31193 53.4496L21.9202 77.8139L29.0455 92.0698C29.7764 93.5317 30.8999 94.761 32.2899 95.62C33.68 96.4791 35.2817 96.9338 36.9156 96.9333H73.8733C75.4238 96.9328 76.9467 96.5223 78.2876 95.7435C79.6284 94.9646 80.7397 93.845 81.5088 92.4981L89.6897 78.1776C91.1199 75.6743 92.0071 72.8978 92.2935 70.0288L93.8827 54.1008C94.0458 52.4697 93.8654 50.8224 93.3531 49.2653C92.8409 47.7082 92.0081 46.2758 90.9086 45.0603C89.8091 43.8449 88.4672 42.8734 86.9694 42.2085C85.4716 41.5436 83.8512 41.2 82.2125 41.2H78.8053C78.4391 40.7034 78.0578 40.2181 77.6617 39.745C76.5416 38.4016 74.6708 36.4128 72.501 35.5445C70.3663 34.688 67.5397 34.7701 65.71 34.9109L64.9359 34.9813C64.3115 33.3825 63.1504 32.0509 61.6518 31.2149C60.3026 30.4365 58.8434 29.8669 57.3238 29.5253C55.5059 29.1616 52.99 29.1851 51.1662 29.2555L50.8847 29.2672Z" fill="#3D3D3D" stroke="#3D3D3D"/>
</g>
<defs>
<clipPath id="clip0_856_101">
<rect width="90" height="96" fill="white" transform="translate(5 2)"/>
</clipPath>
</defs>
</svg>
