<svg width="51" height="50" viewBox="0 0 51 50" fill="none" xmlns="http://www.w3.org/2000/svg">
<path d="M15.9679 1.82079L14.7305 0.583354L12.2556 3.05823L13.493 4.29566L14.7305 3.05823L15.9679 1.82079ZM35.8888 24.2166L30.6588 4.69784L16.3701 18.9865L35.8888 24.2166ZM14.7305 3.05823L13.493 4.29566L23.5144 14.3171L24.7519 13.0796L25.9893 11.8422L15.9679 1.82079L14.7305 3.05823Z" fill="#B90A0A"/>
<path d="M12.4406 17.4933L11.2031 16.2558L8.72825 18.7307L9.96569 19.9681L11.2031 18.7307L12.4406 17.4933ZM39.4142 46.9418L34.1842 27.4231L19.8955 41.7118L39.4142 46.9418ZM11.2031 18.7307L9.96569 19.9681L27.0399 37.0423L28.2773 35.8049L29.5147 34.5674L12.4406 17.4933L11.2031 18.7307Z" fill="#B90A0A"/>
</svg>
