<svg width="51" height="50" viewBox="0 0 51 50" fill="none" xmlns="http://www.w3.org/2000/svg">
<path d="M15.6121 2.17663L14.7305 1.29503L12.9673 3.05823L13.8489 3.93982L14.7305 3.05823L15.6121 2.17663ZM35.8888 24.2166L32.1627 10.3107L21.9829 20.4905L35.8888 24.2166ZM14.7305 3.05823L13.8489 3.93982L27.0728 17.1638L27.9544 16.2822L28.836 15.4006L15.6121 2.17663L14.7305 3.05823Z" fill="#B90A0A"/>
<path d="M12.0847 17.8491L11.2031 16.9675L9.43993 18.7307L10.3215 19.6123L11.2031 18.7307L12.0847 17.8491ZM39.4142 46.9418L35.6882 33.0359L25.5084 43.2157L39.4142 46.9418ZM11.2031 18.7307L10.3215 19.6123L30.5983 39.889L31.4799 39.0074L32.3614 38.1258L12.0847 17.8491L11.2031 18.7307Z" fill="#B90A0A"/>
</svg>
