<svg width="51" height="50" viewBox="0 0 51 50" fill="none" xmlns="http://www.w3.org/2000/svg">
<path d="M9.96569 30.0319L8.72825 31.2693L11.2031 33.7442L12.4406 32.5067L11.2031 31.2693L9.96569 30.0319ZM39.4142 3.05819L19.8955 8.28821L34.1842 22.5769L39.4142 3.05819ZM11.2031 31.2693L12.4406 32.5067L29.5147 15.4326L28.2773 14.1951L27.0399 12.9577L9.96569 30.0319L11.2031 31.2693Z" fill="#00A150"/>
<path d="M13.493 45.7043L12.2556 46.9418L14.7305 49.4166L15.9679 48.1792L14.7305 46.9418L13.493 45.7043ZM35.8888 25.7834L16.3701 31.0135L30.6588 45.3022L35.8888 25.7834ZM14.7305 46.9418L15.9679 48.1792L25.9893 38.1578L24.7519 36.9204L23.5144 35.6829L13.493 45.7043L14.7305 46.9418Z" fill="#00954A"/>
</svg>
