<svg width="51" height="50" viewBox="0 0 51 50" fill="none" xmlns="http://www.w3.org/2000/svg">
<path d="M10.3215 30.3877L9.43993 31.2693L11.2031 33.0325L12.0847 32.1509L11.2031 31.2693L10.3215 30.3877ZM39.4142 3.05819L25.5084 6.78425L35.6882 16.9641L39.4142 3.05819ZM11.2031 31.2693L12.0847 32.1509L32.3614 11.8742L31.4799 10.9926L30.5983 10.111L10.3215 30.3877L11.2031 31.2693Z" fill="#00A150"/>
<path d="M13.8489 46.0602L12.9673 46.9418L14.7305 48.705L15.6121 47.8234L14.7305 46.9418L13.8489 46.0602ZM35.8888 25.7834L21.9829 29.5095L32.1627 39.6893L35.8888 25.7834ZM14.7305 46.9418L15.6121 47.8234L28.836 34.5994L27.9544 33.7178L27.0728 32.8362L13.8489 46.0602L14.7305 46.9418Z" fill="#00954A"/>
</svg>
