<svg width="100" height="100" viewBox="0 0 100 100" fill="none" xmlns="http://www.w3.org/2000/svg">
<path d="M29.9317 3.42603L29.9316 3.42598C29.4245 2.91907 28.737 2.63411 28.02 2.63411C27.303 2.63411 26.6153 2.91904 26.1083 3.42603C10.8306 18.7038 10.8306 43.562 26.1083 58.8397L26.3393 58.6087L26.1083 58.8397C33.0608 65.792 41.9978 69.578 51.1117 70.2027V74.4017H48.5198C47.0269 74.4017 45.8162 75.612 45.8162 77.1053C45.8162 80.8053 42.8056 83.8159 39.1056 83.8159H34.3986C27.7165 83.8159 22.2809 89.2515 22.2809 95.9335C22.2809 96.6505 22.5659 97.3382 23.0729 97.8452L23.0729 97.8452C23.58 98.3521 24.2675 98.6371 24.9845 98.6371H82.6462C84.139 98.6371 85.3498 97.4268 85.3498 95.9335C85.3494 89.2511 79.9138 83.8155 73.2318 83.8155H68.5248C64.8248 83.8155 61.8142 80.8049 61.8142 77.1049C61.8142 75.6118 60.6037 74.4013 59.1106 74.4013H56.5187V70.2022C65.6325 69.5772 74.5695 65.7915 81.522 58.8392C82.029 58.3322 82.3139 57.6445 82.3139 56.9275C82.3139 56.2105 82.029 55.5228 81.522 55.0158L76.6796 50.1734C80.9877 45.0092 83.5843 38.3685 83.5843 31.1326C83.5843 14.7176 70.2301 1.36338 53.8151 1.36338C46.5788 1.36338 39.9385 3.96035 34.7739 8.26841L29.9317 3.42603ZM53.8151 6.77039C67.248 6.77039 78.1773 17.6996 78.1773 31.1326C78.1773 44.5656 67.248 55.4946 53.8151 55.4946C40.3821 55.4946 29.4529 44.5654 29.4529 31.1324C29.4529 17.6994 40.3821 6.77039 53.8151 6.77039ZM29.9317 55.0162C23.5628 48.6473 20.0556 40.1666 20.0556 31.1326C20.0556 23.0079 22.8921 15.3315 28.0949 9.23613L30.9503 12.0918C26.6428 17.256 24.0459 23.8967 24.0459 31.1326C24.0459 47.5476 37.4001 60.9018 53.8151 60.9018C61.0512 60.9018 67.6917 58.3049 72.8559 53.9972L75.7115 56.8526C69.6164 62.0556 61.9398 64.8918 53.8151 64.8918C44.7812 64.8917 36.3004 61.3845 29.9317 55.0162ZM73.2314 89.2227C75.9692 89.2227 78.3309 90.8714 79.373 93.2297H28.2568C29.299 90.8714 31.6606 89.2227 34.3984 89.2227H39.1054C44.8589 89.2227 49.6872 85.193 50.9188 79.8085H56.7109C57.9428 85.193 62.7713 89.2227 68.5244 89.2227H73.2314Z" fill="white" stroke="white" stroke-width="0.7"/>
</svg>
