<svg width="100" height="100" viewBox="0 0 100 100" fill="none" xmlns="http://www.w3.org/2000/svg">
<path d="M29.7903 3.56745L29.7902 3.56743C29.3206 3.09797 28.684 2.83411 28.02 2.83411C27.3561 2.83411 26.7192 3.09796 26.2497 3.56745C11.0501 18.7671 11.0501 43.4987 26.2497 58.6983C33.214 65.6624 42.1795 69.433 51.3117 70.0155V74.6017H48.5198C47.1373 74.6017 46.0162 75.7225 46.0162 77.1053C46.0162 80.9157 42.916 84.0159 39.1056 84.0159H34.3986C27.827 84.0159 22.4809 89.3619 22.4809 95.9335C22.4809 96.5974 22.7448 97.2343 23.2143 97.7037L23.3203 97.5977L23.2143 97.7038C23.684 98.1732 24.3206 98.4371 24.9845 98.4371H82.6462C84.0286 98.4371 85.1498 97.3163 85.1498 95.9335C85.1494 89.3616 79.8033 84.0155 73.2318 84.0155H68.5248C64.7143 84.0155 61.6142 80.9154 61.6142 77.1049C61.6142 75.7223 60.4932 74.6013 59.1106 74.6013H56.3187V70.015C65.4508 69.4323 74.4163 65.6618 81.3806 58.6977C81.8501 58.2282 82.1139 57.5914 82.1139 56.9275C82.1139 56.2635 81.8501 55.6267 81.3806 55.1572L76.4086 50.1852C80.7581 45.0358 83.3843 38.3853 83.3843 31.1326C83.3843 14.8281 70.1196 1.56338 53.8151 1.56338C46.562 1.56338 39.9119 4.18992 34.7621 8.53944L29.7903 3.56745ZM53.8151 6.57039C67.3585 6.57039 78.3773 17.5892 78.3773 31.1326C78.3773 44.676 67.3585 55.6946 53.8151 55.6946C40.2716 55.6946 29.2529 44.6758 29.2529 31.1324C29.2529 17.589 40.2716 6.57039 53.8151 6.57039ZM29.7903 55.1576C23.3837 48.7511 19.8556 40.2195 19.8556 31.1326C19.8556 22.8874 22.7602 15.0999 28.0837 8.94216L31.2214 12.08C26.8724 17.2294 24.2459 23.8799 24.2459 31.1326C24.2459 47.4371 37.5106 60.7018 53.8151 60.7018C61.068 60.7018 67.7182 58.0753 72.8677 53.7261L76.0055 56.8638C69.8479 62.1875 62.0603 65.0918 53.8151 65.0918C44.7284 65.0917 36.1966 61.5636 29.7903 55.1576ZM73.2314 89.0227C76.1588 89.0227 78.6678 90.8527 79.6727 93.4297H27.9571C28.9621 90.8527 31.471 89.0227 34.3984 89.0227H39.1054C44.8187 89.0227 49.6052 84.9818 50.7583 79.6085H56.8715C58.0248 84.9818 62.8115 89.0227 68.5244 89.0227H73.2314Z" fill="#41C7C7" stroke="#41C7C7" stroke-width="0.3"/>
</svg>
