<svg width="100" height="100" viewBox="0 0 100 100" fill="none" xmlns="http://www.w3.org/2000/svg">
<path d="M29.7903 3.56721L29.7902 3.56718C29.3206 3.09772 28.684 2.83387 28.02 2.83387C27.3561 2.83387 26.7192 3.09771 26.2497 3.56721C11.0501 18.7669 11.0501 43.4984 26.2497 58.6981C33.214 65.6621 42.1795 69.4328 51.3117 70.0153V74.6014H48.5198C47.1373 74.6014 46.0162 75.7222 46.0162 77.105C46.0162 80.9155 42.916 84.0156 39.1056 84.0156H34.3986C27.827 84.0156 22.4809 89.3617 22.4809 95.9332C22.4809 96.5972 22.7448 97.234 23.2143 97.7035L23.3203 97.5974L23.2143 97.7035C23.684 98.173 24.3206 98.4369 24.9845 98.4369H82.6462C84.0286 98.4369 85.1498 97.3161 85.1498 95.9332C85.1494 89.3613 79.8033 84.0153 73.2318 84.0153H68.5248C64.7143 84.0153 61.6142 80.9151 61.6142 77.1047C61.6142 75.722 60.4932 74.6011 59.1106 74.6011H56.3187V70.0147C65.4508 69.432 74.4163 65.6616 81.3806 58.6975C81.8501 58.228 82.1139 57.5912 82.1139 56.9272C82.1139 56.2633 81.8501 55.6265 81.3806 55.157L76.4086 50.185C80.7581 45.0355 83.3843 38.385 83.3843 31.1324C83.3843 14.8278 70.1196 1.56313 53.8151 1.56313C46.562 1.56313 39.9119 4.18967 34.7621 8.53919L29.7903 3.56721ZM53.8151 6.57014C67.3585 6.57014 78.3773 17.5889 78.3773 31.1324C78.3773 44.6758 67.3585 55.6944 53.8151 55.6944C40.2716 55.6944 29.2529 44.6756 29.2529 31.1322C29.2529 17.5887 40.2716 6.57014 53.8151 6.57014ZM29.7903 55.1574C23.3837 48.7508 19.8556 40.2193 19.8556 31.1324C19.8556 22.8872 22.7602 15.0997 28.0837 8.94191L31.2214 12.0797C26.8724 17.2292 24.2459 23.8797 24.2459 31.1324C24.2459 47.4369 37.5106 60.7016 53.8151 60.7016C61.068 60.7016 67.7182 58.075 72.8677 53.7259L76.0055 56.8635C69.8479 62.1873 62.0603 65.0916 53.8151 65.0916C44.7284 65.0914 36.1966 61.5633 29.7903 55.1574ZM73.2314 89.0225C76.1588 89.0225 78.6678 90.8525 79.6727 93.4295H27.9571C28.9621 90.8525 31.471 89.0225 34.3984 89.0225H39.1054C44.8187 89.0225 49.6052 84.9816 50.7583 79.6083H56.8715C58.0248 84.9816 62.8115 89.0225 68.5244 89.0225H73.2314Z" fill="#3D3D3D" stroke="#3D3D3D" stroke-width="0.3"/>
</svg>
