<svg width="100" height="100" viewBox="0 0 100 100" fill="none" xmlns="http://www.w3.org/2000/svg">
<path d="M54.6922 68.9757H46.2978C40.3592 68.9757 35.4922 63.9748 35.4922 57.8129C35.4922 55.9822 37.0103 54.464 38.841 54.464C40.6717 54.464 42.1899 55.9822 42.1899 57.8129C42.1899 60.2687 44.0205 62.278 46.2978 62.278H54.6922C56.4335 62.278 57.8177 60.7152 57.8177 58.7952C57.8177 56.384 57.148 56.0268 55.6298 55.491L42.1899 50.8026C39.3322 49.8203 35.4922 47.7217 35.4922 41.1579C35.4922 35.5766 39.9127 30.9775 45.3154 30.9775H53.7098C59.6484 30.9775 64.5154 35.9785 64.5154 42.1403C64.5154 43.971 62.9973 45.4891 61.1666 45.4891C59.3359 45.4891 57.8177 43.971 57.8177 42.1403C57.8177 39.6846 55.987 37.6752 53.7098 37.6752H45.3154C43.574 37.6752 42.1899 39.238 42.1899 41.1579C42.1899 43.5691 42.8596 43.9263 44.3778 44.4621L57.8177 49.1505C60.6754 50.1328 64.5154 52.2315 64.5154 58.7952C64.5154 64.4213 60.0949 68.9757 54.6922 68.9757Z" fill="#3D3D3D"/>
<path d="M49.9971 73.4404C48.1665 73.4404 46.6484 71.9222 46.6484 70.0915V29.9046C46.6484 28.0738 48.1665 26.5557 49.9971 26.5557C51.8277 26.5557 53.3457 28.0738 53.3457 29.9046V70.0915C53.3457 71.9222 51.8277 73.4404 49.9971 73.4404Z" fill="#3D3D3D"/>
<path d="M50 97.9976C23.5219 97.9976 2 76.4768 2 50C2 23.5232 23.5219 2.00244 50 2.00244C51.8307 2.00244 53.3488 3.5205 53.3488 5.35111C53.3488 7.18171 51.8307 8.69978 50 8.69978C27.2279 8.69978 8.69767 27.2291 8.69767 50C8.69767 72.7709 27.2279 91.3002 50 91.3002C72.7721 91.3002 91.3023 72.7709 91.3023 50C91.3023 48.1694 92.8205 46.6513 94.6512 46.6513C96.4819 46.6513 98 48.1694 98 50C98 76.4768 76.4781 97.9976 50 97.9976Z" fill="#3D3D3D"/>
<path d="M72.6304 35.0366H94.3696C95.27 35.0366 96 34.365 96 33.5366V16.5366C96 15.7082 95.27 15.0366 94.3696 15.0366H92.7391V10.5366C92.7391 5.84972 88.5945 2.03662 83.5 2.03662C78.4055 2.03662 74.2609 5.84972 74.2609 10.5366V15.0366H72.6304C71.73 15.0366 71 15.7082 71 16.5366V33.5366C71 34.365 71.73 35.0366 72.6304 35.0366ZM88.1175 23.9722L83.4979 28.2222C83.1796 28.5151 82.7623 28.6616 82.3451 28.6616C81.9279 28.6616 81.5105 28.5151 81.1923 28.2222L78.8825 26.0972C78.2458 25.5114 78.2458 24.5618 78.8825 23.9759C79.5191 23.3901 80.5515 23.3901 81.1883 23.9759L82.3452 25.0402L85.812 21.8509C86.4486 21.2651 87.481 21.2651 88.1177 21.8509C88.7543 22.4368 88.7543 23.3864 88.1175 23.9722ZM77.5217 10.5366C77.5217 7.50392 80.2036 5.03662 83.5 5.03662C86.7964 5.03662 89.4783 7.50392 89.4783 10.5366V15.0366H77.5217V10.5366Z" fill="#3D3D3D" stroke="#3D3D3D" stroke-width="1.08176"/>
</svg>
