<svg width="100" height="100" viewBox="0 0 100 100" fill="none" xmlns="http://www.w3.org/2000/svg">
<path d="M54.6922 68.9755H46.2978C40.3592 68.9755 35.4922 63.9745 35.4922 57.8126C35.4922 55.9819 37.0103 54.4638 38.841 54.4638C40.6717 54.4638 42.1899 55.9819 42.1899 57.8126C42.1899 60.2685 44.0205 62.2778 46.2978 62.2778H54.6922C56.4335 62.2778 57.8177 60.715 57.8177 58.795C57.8177 56.3838 57.148 56.0266 55.6298 55.4908L42.1899 50.8024C39.3322 49.82 35.4922 47.7214 35.4922 41.1577C35.4922 35.5764 39.9127 30.9773 45.3154 30.9773H53.7098C59.6484 30.9773 64.5154 35.9783 64.5154 42.14C64.5154 43.9707 62.9973 45.4889 61.1666 45.4889C59.3359 45.4889 57.8177 43.9707 57.8177 42.14C57.8177 39.6843 55.987 37.675 53.7098 37.675H45.3154C43.574 37.675 42.1899 39.2378 42.1899 41.1577C42.1899 43.5689 42.8596 43.9261 44.3778 44.4619L57.8177 49.1503C60.6754 50.1326 64.5154 52.2312 64.5154 58.795C64.5154 64.421 60.0949 68.9755 54.6922 68.9755Z" fill="#3D3D3D"/>
<path d="M49.9971 73.4407C48.1665 73.4407 46.6484 71.9225 46.6484 70.0917V29.9048C46.6484 28.0741 48.1665 26.5559 49.9971 26.5559C51.8277 26.5559 53.3457 28.0741 53.3457 29.9048V70.0917C53.3457 71.9225 51.8277 73.4407 49.9971 73.4407Z" fill="#3D3D3D"/>
<path d="M50 97.9976C23.5219 97.9976 2 76.4768 2 50C2 23.5232 23.5219 2.00244 50 2.00244C51.8307 2.00244 53.3488 3.5205 53.3488 5.35111C53.3488 7.18171 51.8307 8.69978 50 8.69978C27.2279 8.69978 8.69767 27.2291 8.69767 50C8.69767 72.771 27.2279 91.3002 50 91.3002C72.7721 91.3002 91.3023 72.771 91.3023 50C91.3023 48.1694 92.8205 46.6513 94.6512 46.6513C96.4819 46.6513 98 48.1694 98 50C98 76.4768 76.4781 97.9976 50 97.9976Z" fill="#3D3D3D"/>
<path d="M72.6304 35.0366H94.3696C95.27 35.0366 96 34.365 96 33.5366V16.5366C96 15.7082 95.27 15.0366 94.3696 15.0366H92.7391V10.5366C92.7391 5.84972 88.5945 2.03662 83.5 2.03662C78.4055 2.03662 74.2609 5.84972 74.2609 10.5366V15.0366H72.6304C71.73 15.0366 71 15.7082 71 16.5366V33.5366C71 34.365 71.73 35.0366 72.6304 35.0366ZM88.1175 23.9722L83.4979 28.2222C83.1796 28.5151 82.7623 28.6616 82.3451 28.6616C81.9279 28.6616 81.5105 28.5151 81.1923 28.2222L78.8825 26.0972C78.2458 25.5114 78.2458 24.5618 78.8825 23.9759C79.5191 23.3901 80.5515 23.3901 81.1883 23.9759L82.3452 25.0402L85.812 21.8509C86.4486 21.2651 87.481 21.2651 88.1177 21.8509C88.7543 22.4368 88.7543 23.3864 88.1175 23.9722ZM77.5217 10.5366C77.5217 7.50392 80.2036 5.03662 83.5 5.03662C86.7964 5.03662 89.4783 7.50392 89.4783 10.5366V15.0366H77.5217V10.5366Z" fill="#3D3D3D" stroke="#3D3D3D" stroke-width="1.08176"/>
</svg>
