<svg width="100" height="100" viewBox="0 0 100 100" fill="none" xmlns="http://www.w3.org/2000/svg">
<path d="M56.2431 53.7531L56.2368 53.7509L42.7968 49.0625L42.7968 49.0625L42.7889 49.0598C41.4843 48.6113 40.1532 47.9706 39.1409 46.8424C38.1666 45.7567 37.3349 44.0482 37.3349 41.1577C37.3349 36.5293 40.9939 32.82 45.3154 32.82H53.7098C58.5776 32.82 62.6727 36.9419 62.6727 42.14C62.6727 42.953 61.9796 43.6462 61.1666 43.6462C60.3536 43.6462 59.6604 42.953 59.6604 42.14C59.6604 38.8197 57.1513 35.8323 53.7098 35.8323H45.3154C42.3673 35.8323 40.3472 38.4201 40.3472 41.1577C40.3472 42.4499 40.5066 43.6791 41.2619 44.6468C41.9839 45.5719 43.0325 45.9415 43.7208 46.1841C43.7355 46.1893 43.7501 46.1944 43.7645 46.1995L43.7708 46.2017L57.2108 50.8901L57.2108 50.8901L57.2187 50.8929C58.5233 51.3413 59.8543 51.982 60.8667 53.1102C61.841 54.1959 62.6727 55.9044 62.6727 58.795C62.6727 63.4628 59.0189 67.1328 54.6922 67.1328H46.2978C41.4301 67.1328 37.3349 63.0109 37.3349 57.8126C37.3349 56.9996 38.028 56.3065 38.841 56.3065C39.654 56.3065 40.3472 56.9996 40.3472 57.8126C40.3472 61.1331 42.8562 64.1204 46.2978 64.1204H54.6922C57.6403 64.1204 59.6604 61.5327 59.6604 58.795C59.6604 57.5028 59.501 56.2736 58.7457 55.3059C58.0237 54.3808 56.9751 54.0112 56.2868 53.7686C56.2721 53.7634 56.2575 53.7582 56.2431 53.7531Z" fill="#41C7C7" stroke="#41C7C7" stroke-width="3.68533"/>
<path d="M49.9971 71.598C49.1843 71.598 48.4911 70.9049 48.4911 70.0917V29.9048C48.4911 29.0916 49.1843 28.3986 49.9971 28.3986C50.8099 28.3986 51.5031 29.0916 51.5031 29.9048V70.0917C51.5031 70.9049 50.8099 71.598 49.9971 71.598Z" fill="#41C7C7" stroke="#41C7C7" stroke-width="3.68533"/>
<path d="M50 96.1549C24.5394 96.1549 3.84267 75.459 3.84267 50C3.84267 24.541 24.5395 3.84511 50 3.84511C50.8131 3.84511 51.5062 4.53827 51.5062 5.35111C51.5062 6.16395 50.8131 6.85711 50 6.85711C26.2103 6.85711 6.85501 26.2113 6.85501 50C6.85501 73.7887 26.2103 93.1429 50 93.1429C73.7897 93.1429 93.145 73.7887 93.145 50C93.145 49.1872 93.8381 48.494 94.6512 48.494C95.4643 48.494 96.1573 49.1872 96.1573 50C96.1573 75.459 75.4606 96.1549 50 96.1549Z" fill="#41C7C7" stroke="#41C7C7" stroke-width="3.68533"/>
<path d="M72.6304 35.0366H94.3696C95.27 35.0366 96 34.365 96 33.5366V16.5366C96 15.7082 95.27 15.0366 94.3696 15.0366H92.7391V10.5366C92.7391 5.84972 88.5945 2.03662 83.5 2.03662C78.4055 2.03662 74.2609 5.84972 74.2609 10.5366V15.0366H72.6304C71.73 15.0366 71 15.7082 71 16.5366V33.5366C71 34.365 71.73 35.0366 72.6304 35.0366ZM88.1175 23.9722L83.4979 28.2222C83.1796 28.5151 82.7623 28.6616 82.3451 28.6616C81.9279 28.6616 81.5105 28.5151 81.1923 28.2222L78.8825 26.0972C78.2458 25.5114 78.2458 24.5618 78.8825 23.9759C79.5191 23.3901 80.5515 23.3901 81.1883 23.9759L82.3452 25.0402L85.812 21.8509C86.4486 21.2651 87.481 21.2651 88.1177 21.8509C88.7543 22.4368 88.7543 23.3864 88.1175 23.9722ZM77.5217 10.5366C77.5217 7.50392 80.2036 5.03662 83.5 5.03662C86.7964 5.03662 89.4783 7.50392 89.4783 10.5366V15.0366H77.5217V10.5366Z" fill="#41C7C7" stroke="#41C7C7" stroke-width="1.08176"/>
</svg>
