<svg width="100" height="100" viewBox="0 0 100 100" fill="none" xmlns="http://www.w3.org/2000/svg">
<path d="M54.8454 81.1569H46.1688C40.0306 81.1569 35 76.2786 35 70.2678C35 68.4819 36.5692 67.001 38.4614 67.001C40.3536 67.001 41.9228 68.4819 41.9228 70.2678C41.9228 72.6634 43.8151 74.6234 46.1688 74.6234H54.8454C56.6454 74.6234 58.0761 73.0989 58.0761 71.226C58.0761 68.8739 57.3838 68.5255 55.8146 68.0028L41.9228 63.4294C38.9691 62.4711 35 60.424 35 54.0211C35 48.5767 39.5691 44.0903 45.1535 44.0903H53.8301C59.9683 44.0903 64.9989 48.9687 64.9989 54.9794C64.9989 56.7652 63.4297 58.2461 61.5375 58.2461C59.6452 58.2461 58.0761 56.7652 58.0761 54.9794C58.0761 52.5839 56.1838 50.6238 53.8301 50.6238H45.1535C43.3535 50.6238 41.9228 52.1483 41.9228 54.0211C41.9228 56.3732 42.6151 56.7216 44.1843 57.2443L58.0761 61.8178C61.0298 62.776 64.9989 64.8232 64.9989 71.226C64.9989 76.7141 60.4298 81.1569 54.8454 81.1569Z" fill="#3D3D3D"/>
<path d="M50.4612 85.5114C48.5691 85.5114 47 84.0304 47 82.2446V43.0436C47 41.2578 48.5691 39.7769 50.4612 39.7769C52.3534 39.7769 53.9225 41.2578 53.9225 43.0436V82.2446C53.9225 84.0304 52.3534 85.5114 50.4612 85.5114Z" fill="#3D3D3D"/>
<path d="M35.8238 6.96452L35.8177 6.96996L35.8119 6.97558C32.1096 10.5457 29.9844 15.1791 29.9296 20.2057H9.4169C7.91002 20.2057 6.62969 21.2824 6.53037 22.775C6.53035 22.7753 6.53033 22.7756 6.53031 22.7759L1.51706 95.473C1.42327 96.3024 1.72028 97.0474 2.29468 97.5968C2.87901 98.2316 3.65214 98.4976 4.40277 98.4976H95.5327C97.162 98.4976 98.4038 97.2283 98.499 95.7002L98.5 95.6846V95.6691V95.6564C98.5 95.4476 98.5001 95.2421 98.4149 94.9707L93.4848 22.851C93.3859 21.3579 92.1054 20.2808 90.5982 20.2808H70.0855C69.9714 9.85388 60.9297 1.50244 50.0075 1.50244C44.6279 1.50244 39.6542 3.50333 35.8238 6.96452ZM70.007 30.3757V25.7876H87.9024L92.4509 92.9908H7.48462L12.0331 25.7876H29.9285V30.3757C28.6264 31.277 27.8592 32.584 27.8592 34.0759C27.8592 36.7075 30.1005 38.7823 32.8162 38.7823C35.532 38.7823 37.7732 36.7075 37.7732 34.0759C37.7732 32.584 37.006 31.277 35.7039 30.3757V25.7876H64.2316V30.3757C62.9295 31.277 62.1623 32.584 62.1623 34.0759C62.1623 36.7075 64.4035 38.7823 67.1193 38.7823C69.835 38.7823 72.0763 36.7075 72.0763 34.0759C72.0763 32.584 71.3091 31.277 70.007 30.3757ZM64.3096 20.3559H35.7055C35.8194 13.0157 42.2067 7.08437 50.0075 7.08437C57.8084 7.08437 64.1957 13.0157 64.3096 20.3559Z" fill="#3D3D3D" stroke="#3D3D3D"/>
</svg>
