<svg width="100" height="100" viewBox="0 0 100 100" fill="none" xmlns="http://www.w3.org/2000/svg">
<path d="M54.8454 81.1572H46.1688C40.0306 81.1572 35 76.2788 35 70.268C35 68.4822 36.5692 67.0013 38.4614 67.0013C40.3536 67.0013 41.9228 68.4822 41.9228 70.268C41.9228 72.6636 43.8151 74.6237 46.1688 74.6237H54.8454C56.6454 74.6237 58.0761 73.0992 58.0761 71.2262C58.0761 68.8742 57.3838 68.5257 55.8146 68.0031L41.9228 63.4296C38.9691 62.4714 35 60.4242 35 54.0214C35 48.5769 39.5691 44.0906 45.1535 44.0906H53.8301C59.9683 44.0906 64.9989 48.9689 64.9989 54.9796C64.9989 56.7654 63.4297 58.2464 61.5375 58.2464C59.6452 58.2464 58.0761 56.7654 58.0761 54.9796C58.0761 52.5841 56.1838 50.6241 53.8301 50.6241H45.1535C43.3535 50.6241 41.9228 52.1486 41.9228 54.0214C41.9228 56.3734 42.6151 56.7219 44.1843 57.2446L58.0761 61.818C61.0298 62.7763 64.9989 64.8234 64.9989 71.2262C64.9989 76.7144 60.4298 81.1572 54.8454 81.1572Z" fill="#41C7C7"/>
<path d="M54.8454 81.1572H46.1688C40.0306 81.1572 35 76.2788 35 70.268C35 68.4822 36.5692 67.0013 38.4614 67.0013C40.3536 67.0013 41.9228 68.4822 41.9228 70.268C41.9228 72.6636 43.8151 74.6237 46.1688 74.6237H54.8454C56.6454 74.6237 58.0761 73.0992 58.0761 71.2262C58.0761 68.8742 57.3838 68.5257 55.8146 68.0031L41.9228 63.4296C38.9691 62.4714 35 60.4242 35 54.0214C35 48.5769 39.5691 44.0906 45.1535 44.0906H53.8301C59.9683 44.0906 64.9989 48.9689 64.9989 54.9796C64.9989 56.7654 63.4297 58.2464 61.5375 58.2464C59.6452 58.2464 58.0761 56.7654 58.0761 54.9796C58.0761 52.5841 56.1838 50.6241 53.8301 50.6241H45.1535C43.3535 50.6241 41.9228 52.1486 41.9228 54.0214C41.9228 56.3734 42.6151 56.7219 44.1843 57.2446L58.0761 61.818C61.0298 62.7763 64.9989 64.8234 64.9989 71.2262C64.9989 76.7144 60.4298 81.1572 54.8454 81.1572Z" stroke="#41C7C7"/>
<path d="M50.4612 85.5114C48.5691 85.5114 47 84.0304 47 82.2446V43.0436C47 41.2578 48.5691 39.7769 50.4612 39.7769C52.3534 39.7769 53.9225 41.2578 53.9225 43.0436V82.2446C53.9225 84.0304 52.3534 85.5114 50.4612 85.5114Z" fill="#41C7C7"/>
<path d="M50.4612 85.5114C48.5691 85.5114 47 84.0304 47 82.2446V43.0436C47 41.2578 48.5691 39.7769 50.4612 39.7769C52.3534 39.7769 53.9225 41.2578 53.9225 43.0436V82.2446C53.9225 84.0304 52.3534 85.5114 50.4612 85.5114Z" stroke="#41C7C7"/>
<path d="M35.8238 6.96452L35.8177 6.96996L35.8119 6.97558C32.1096 10.5457 29.9844 15.1791 29.9296 20.2057H9.4169C7.91002 20.2057 6.62969 21.2824 6.53037 22.775C6.53035 22.7753 6.53033 22.7756 6.53031 22.7759L1.51706 95.473C1.42327 96.3024 1.72028 97.0474 2.29468 97.5968C2.87901 98.2316 3.65214 98.4976 4.40277 98.4976H95.5327C97.162 98.4976 98.4038 97.2283 98.499 95.7002L98.5 95.6846V95.6691V95.6564C98.5 95.4476 98.5001 95.2421 98.4149 94.9707L93.4848 22.851C93.3859 21.3579 92.1054 20.2808 90.5982 20.2808H70.0855C69.9714 9.85388 60.9297 1.50244 50.0075 1.50244C44.6279 1.50244 39.6542 3.50333 35.8238 6.96452ZM70.007 30.3757V25.7876H87.9024L92.4509 92.9908H7.48462L12.0331 25.7876H29.9285V30.3757C28.6264 31.277 27.8592 32.584 27.8592 34.0759C27.8592 36.7075 30.1005 38.7823 32.8162 38.7823C35.532 38.7823 37.7732 36.7075 37.7732 34.0759C37.7732 32.584 37.006 31.277 35.7039 30.3757V25.7876H64.2316V30.3757C62.9295 31.277 62.1623 32.584 62.1623 34.0759C62.1623 36.7075 64.4035 38.7823 67.1193 38.7823C69.835 38.7823 72.0763 36.7075 72.0763 34.0759C72.0763 32.584 71.3091 31.277 70.007 30.3757ZM64.3096 20.3559H35.7055C35.8194 13.0157 42.2067 7.08437 50.0075 7.08437C57.8084 7.08437 64.1957 13.0157 64.3096 20.3559Z" fill="#41C7C7" stroke="#41C7C7"/>
</svg>
