<svg width="100" height="100" viewBox="0 0 100 100" fill="none" xmlns="http://www.w3.org/2000/svg">
<g clip-path="url(#clip0_768_104)">
<path fill-rule="evenodd" clip-rule="evenodd" d="M50.0001 4.76025C47.4553 4.76025 45.1117 5.39272 42.5463 6.45377C40.0687 7.47833 37.1913 8.98841 33.6082 10.8688L24.9074 15.4347C20.5098 17.7424 16.9906 19.5892 14.2733 21.4038C11.4582 23.2838 9.29001 25.2633 7.71105 27.9447C6.13738 30.6171 5.42946 33.5109 5.08997 36.957C4.76046 40.3021 4.76046 44.4158 4.7605 49.5899V50.4097C4.76046 55.5835 4.76046 59.6975 5.08997 63.0427C5.42946 66.4889 6.13738 69.3826 7.71105 72.0549C9.29001 74.7364 11.4582 76.716 14.2733 78.5959C16.9905 80.4105 20.5095 82.2571 24.9068 84.5646L33.608 89.131C37.1911 91.0113 40.0687 92.5213 42.5463 93.546C45.1117 94.6069 47.4553 95.2394 50.0001 95.2394C52.5449 95.2394 54.8885 94.6069 57.4539 93.546C59.9313 92.5213 62.809 91.0113 66.392 89.131L75.0927 84.565C79.4904 82.2571 83.0094 80.4105 85.7267 78.5959C88.5421 76.716 90.7102 74.7364 92.2892 72.0549C93.8627 69.3826 94.5705 66.4889 94.9101 63.0427C95.2397 59.6975 95.2397 55.5839 95.2397 50.4101V49.5895C95.2397 44.4158 95.2397 40.302 94.9101 36.957C94.5705 33.5109 93.8627 30.6171 92.2892 27.9447C90.7102 25.2633 88.5421 23.2838 85.7267 21.4038C83.0094 19.5892 79.4904 17.7424 75.0927 15.4347L66.392 10.8688C62.809 8.98845 59.9313 7.47837 57.4539 6.45377C54.8885 5.39272 52.5449 4.76025 50.0001 4.76025ZM36.4105 16.5271C40.1548 14.5622 42.7786 13.1887 44.9585 12.2871C47.0803 11.4096 48.5713 11.0728 50.0001 11.0728C51.4288 11.0728 52.9198 11.4096 55.0417 12.2871C57.2216 13.1887 59.8455 14.5622 63.5896 16.5271L72.0063 20.9439C76.5921 23.3505 79.814 25.0458 82.2212 26.6533C83.4088 27.4465 84.3418 28.1829 85.0955 28.9234L50.0001 46.4711L14.9049 28.9234C15.6582 28.1829 16.5915 27.4465 17.7791 26.6533C20.1863 25.0458 23.4081 23.3504 27.9939 20.9439L36.4105 16.5271ZM11.8628 34.46C11.6503 35.3601 11.4897 36.3822 11.372 37.5759C11.0765 40.5757 11.073 44.3792 11.073 49.7536V50.246C11.073 55.6205 11.0765 59.424 11.372 62.4237C11.6611 65.3577 12.2102 67.2548 13.1505 68.8519C14.0856 70.4397 15.4382 71.783 17.7791 73.3464C20.1863 74.954 23.4081 76.6491 27.9939 79.0558L36.4105 83.4725C40.1548 85.4374 42.7786 86.811 44.9585 87.7124C45.647 87.9973 46.269 88.225 46.8438 88.403V51.9504L11.8628 34.46ZM53.1563 88.403C53.7312 88.225 54.3532 87.9973 55.0417 87.7124C57.2216 86.811 59.8455 85.4374 63.5896 83.4725L72.0063 79.0558C76.5921 76.6491 79.814 74.954 82.2212 73.3464C84.5619 71.783 85.9144 70.4397 86.8495 68.8519C87.7901 67.2548 88.3393 65.3577 88.6279 62.4237C88.9238 59.424 88.9272 55.6205 88.9272 50.246V49.7536C88.9272 44.3792 88.9238 40.5757 88.6279 37.5759C88.5105 36.3822 88.3498 35.3601 88.1373 34.46L53.1563 51.9504V88.403Z" fill="#41C7C7"/>
</g>
<defs>
<clipPath id="clip0_768_104">
<rect width="90.4792" height="90.4792" fill="white" transform="translate(4.7605 4.76025)"/>
</clipPath>
</defs>
</svg>
