<svg width="100" height="100" viewBox="0 0 100 100" fill="none" xmlns="http://www.w3.org/2000/svg">
<g clip-path="url(#clip0_1714_79)">
<path fill-rule="evenodd" clip-rule="evenodd" d="M50.0013 4.7605C47.4565 4.7605 45.1129 5.39297 42.5475 6.45402C40.07 7.47858 37.1925 8.98865 33.6094 10.869L24.9087 15.435C20.5111 17.7427 16.9918 19.5894 14.2745 21.4041C11.4594 23.2841 9.29123 25.2635 7.71227 27.945C6.1386 30.6174 5.43068 33.5112 5.09119 36.9573C4.76168 40.3023 4.76168 44.416 4.76172 49.5902V50.41C4.76168 55.5837 4.76168 59.6978 5.09119 63.043C5.43068 66.4892 6.1386 69.3828 7.71227 72.0551C9.29123 74.7367 11.4594 76.7163 14.2745 78.5961C16.9917 80.4108 20.5107 82.2574 24.908 84.5648L33.6093 89.1313C37.1923 91.0115 40.07 92.5215 42.5475 93.5462C45.1129 94.6071 47.4565 95.2397 50.0013 95.2397C52.5461 95.2397 54.8897 94.6071 57.4551 93.5462C59.9325 92.5215 62.8102 91.0115 66.3932 89.1313L75.0939 84.5652C79.4916 82.2574 83.0106 80.4108 85.7279 78.5961C88.5433 76.7163 90.7115 74.7367 92.2904 72.0551C93.8639 69.3828 94.5717 66.4892 94.9114 63.043C95.2409 59.6978 95.2409 55.5841 95.2409 50.4104V49.5898C95.2409 44.416 95.2409 40.3023 94.9114 36.9573C94.5717 33.5112 93.8639 30.6174 92.2904 27.945C90.7115 25.2635 88.5433 23.2841 85.7279 21.4041C83.0106 19.5894 79.4916 17.7427 75.0939 15.4349L66.3932 10.8691C62.8102 8.98869 59.9325 7.47862 57.4551 6.45402C54.8897 5.39297 52.5461 4.7605 50.0013 4.7605ZM36.4117 16.5273C40.156 14.5624 42.7798 13.1889 44.9597 12.2874C47.0816 11.4098 48.5726 11.073 50.0013 11.073C51.43 11.073 52.921 11.4098 55.0429 12.2874C57.2228 13.1889 59.8467 14.5624 63.5909 16.5273L72.0075 20.9442C76.5933 23.3507 79.8152 25.046 82.2224 26.6536C83.41 27.4467 84.343 28.1832 85.0967 28.9237L50.0013 46.4714L14.9061 28.9237C15.6595 28.1832 16.5927 27.4467 17.7803 26.6536C20.1875 25.046 23.4093 23.3507 27.9951 20.9442L36.4117 16.5273ZM11.864 34.4602C11.6515 35.3603 11.4909 36.3824 11.3733 37.5762C11.0778 40.5759 11.0742 44.3794 11.0742 49.7539V50.2463C11.0742 55.6207 11.0778 59.4242 11.3733 62.4239C11.6623 65.358 12.2114 67.2551 13.1517 68.8521C14.0868 70.44 15.4394 71.7833 17.7803 73.3466C20.1875 74.9542 23.4093 76.6493 27.9951 79.0561L36.4117 83.4727C40.156 85.4376 42.7798 86.8112 44.9597 87.7126C45.6482 87.9975 46.2702 88.2252 46.845 88.4032V51.9506L11.864 34.4602ZM53.1575 88.4032C53.7324 88.2252 54.3544 87.9975 55.0429 87.7126C57.2228 86.8112 59.8467 85.4376 63.5909 83.4727L72.0075 79.0561C76.5933 76.6493 79.8152 74.9542 82.2224 73.3466C84.5631 71.7833 85.9156 70.44 86.8507 68.8521C87.7913 67.2551 88.3405 65.358 88.6292 62.4239C88.925 59.4242 88.9284 55.6207 88.9284 50.2463V49.7539C88.9284 44.3794 88.925 40.5759 88.6292 37.5762C88.5118 36.3824 88.351 35.3603 88.1385 34.4602L53.1575 51.9506V88.4032Z" fill="#FCF8EE"/>
</g>
<defs>
<clipPath id="clip0_1714_79">
<rect width="90.4792" height="90.4792" fill="white" transform="translate(4.76172 4.7605)"/>
</clipPath>
</defs>
</svg>
