<svg width="100" height="100" viewBox="0 0 100 100" fill="none" xmlns="http://www.w3.org/2000/svg">
<path d="M11.2539 29.2454L48.099 50.5668L84.6939 29.3704" stroke="#FCF8EE" stroke-width="6.2591" stroke-linecap="round" stroke-linejoin="round"/>
<path d="M48.1016 88.3704V50.5256" stroke="#FCF8EE" stroke-width="6.2591" stroke-linecap="round" stroke-linejoin="round"/>
<path d="M88.1999 51.7363V36.4648C88.1999 30.7068 84.0689 23.697 79.0199 20.9014L56.7375 8.55066C51.9806 5.88025 44.2193 5.88025 39.4623 8.55066L17.18 20.9014C12.131 23.697 8 30.7068 8 36.4648V60.0813C8 65.8394 12.131 72.8492 17.18 75.6448L39.4623 87.9955C41.8408 89.3307 44.9704 89.9983 48.0999 89.9983C51.2295 89.9983 54.359 89.3307 56.7375 87.9955" stroke="#FCF8EE" stroke-width="6.2591" stroke-linecap="round" stroke-linejoin="round"/>
<path d="M78.1418 87.4947C85.5163 87.4947 91.4946 81.5167 91.4946 74.1426C91.4946 66.7685 85.5163 60.7905 78.1418 60.7905C70.7673 60.7905 64.7891 66.7685 64.7891 74.1426C64.7891 81.5167 70.7673 87.4947 78.1418 87.4947Z" stroke="#FCF8EE" stroke-width="6.2591" stroke-linecap="round" stroke-linejoin="round"/>
<path d="M94.0009 89.9982L89.8281 85.8257" stroke="#FCF8EE" stroke-width="6.2591" stroke-linecap="round" stroke-linejoin="round"/>
</svg>
