<svg width="100" height="100" viewBox="0 0 100 100" fill="none" xmlns="http://www.w3.org/2000/svg">
<path d="M79.1689 4.09937C79.9671 3.84748 80.6532 3.75809 81.3047 3.86499C81.6432 3.9205 81.9204 3.9796 82.3359 4.16479C82.7298 4.34034 83.2482 4.62906 84.0859 5.12964C85.7652 6.13309 88.8325 8.05145 94.9629 11.782C97.4438 13.292 98.3708 14.591 98.4863 15.6902C98.5743 16.5283 98.1761 17.1169 97.8965 17.4275L97.6787 17.6443C97.1857 18.0976 96.7403 18.4407 96.2656 18.5994C95.7554 18.7699 95.2746 18.7096 94.7607 18.5046C94.2708 18.3092 93.7087 17.9645 93.0156 17.5242C92.3095 17.0756 91.4375 16.5074 90.29 15.823C89.8256 15.546 89.3162 15.2499 88.7559 14.9363L88.7412 14.9285L88.7275 14.9187C88.6693 14.8808 88.5897 14.8301 88.4922 14.7683C87.4449 14.1046 84.339 12.1919 83.668 11.7605V11.7595C81.619 10.4417 80.6049 10.1188 79.6309 10.2849C79.1235 10.3715 78.587 10.5969 77.8867 10.9714C77.1733 11.353 76.3769 11.8381 75.2842 12.449C73.4441 13.4774 71.9067 14.25 70.6436 14.8855C69.372 15.5252 68.4017 16.0156 67.6631 16.4919C66.9295 16.965 66.47 17.3962 66.1885 17.8943C65.9094 18.3882 65.7746 19.0015 65.7939 19.8943C65.877 23.7233 65.9261 25.6375 65.9902 26.6716C66.0224 27.1901 66.0569 27.4613 66.0947 27.6316C66.1283 27.7824 66.1645 27.8569 66.2344 28.0007L66.29 28.1082C66.3101 28.1419 66.334 28.1758 66.3682 28.2166C66.4432 28.306 66.5795 28.4402 66.8457 28.6375C67.3826 29.0353 68.3896 29.6492 70.334 30.6531C74.8398 32.9803 77.073 34.1595 78.2979 34.7703C78.9125 35.0767 79.2487 35.2279 79.4785 35.3083C79.6866 35.3812 79.8057 35.3967 80.0068 35.4148C80.2036 35.4325 80.5163 35.3845 80.9561 35.238C81.3852 35.0951 81.8918 34.8733 82.46 34.5886C83.5962 34.0192 84.9345 33.219 86.3164 32.3523C89.0482 30.6389 91.9875 28.6405 93.6953 27.821C95.1865 27.1055 96.3388 27.2712 97.1406 27.7273C97.5282 27.9478 97.8153 28.2256 98.0107 28.4675C98.1087 28.5888 98.1866 28.7047 98.2441 28.8044C98.2941 28.8912 98.3487 28.9993 98.374 29.1013L98.4062 29.2527C98.5449 30.0063 98.3131 30.7076 97.9229 31.3123C97.5105 31.951 96.9003 32.5186 96.2725 32.9988C95.03 33.9489 93.5478 34.6714 93.1562 34.905C91.7698 35.7316 90.4296 36.596 89.1523 37.4255C87.8783 38.253 86.6623 39.049 85.5371 39.7283C84.4135 40.4066 83.3608 40.9807 82.4102 41.3611C81.4682 41.738 80.5688 41.9482 79.7725 41.8328C79.4704 41.7889 79.0027 41.605 78.4727 41.3679C77.9191 41.1203 77.2296 40.7833 76.4531 40.3875C74.8997 39.5954 72.9733 38.5573 71.0352 37.5115C69.094 36.464 67.1401 35.4077 65.5254 34.573C64.7182 34.1557 63.9995 33.7958 63.4121 33.5212C62.8148 33.242 62.3826 33.0648 62.1348 32.9968C61.8714 32.9246 61.3742 32.861 60.6621 32.8103C59.9627 32.7605 59.092 32.7256 58.1045 32.7029C56.13 32.6574 53.7072 32.6585 51.2891 32.6726C48.8755 32.6867 46.4603 32.7138 44.5186 32.7195C42.5948 32.7252 41.0767 32.7106 40.4834 32.6345C40.3156 32.6129 39.3914 32.4981 38.584 32.032C38.1742 31.7954 37.7629 31.4508 37.5088 30.9519C37.2493 30.4424 37.1804 29.824 37.3691 29.1013C37.5552 28.3902 38.0463 27.9162 38.7969 27.6121C39.5175 27.3201 40.5168 27.1659 41.8193 27.0798C44.4303 26.9074 48.506 26.998 54.5654 26.9968C55.5871 26.9968 56.4861 27.0511 57.2012 27.072C57.9418 27.0937 58.4732 27.0794 58.8633 26.9734C59.2166 26.8774 59.4281 26.7148 59.5723 26.4167C59.7358 26.0785 59.8316 25.5251 59.8066 24.6082C59.7733 23.3884 59.7788 22.4376 59.748 21.5886C59.7178 20.7545 59.6537 20.1451 59.5059 19.697C59.3662 19.2739 59.1615 19.0217 58.8438 18.8582C58.4971 18.6799 57.9609 18.5793 57.1045 18.5994H57.1035C53.3365 18.6877 53.2598 18.6384 34.2275 18.6384C30.2147 18.6384 28.2283 18.6258 27.1562 18.613C26.0639 18.6 25.9407 18.5876 25.5859 18.5876C25.5438 18.5876 25.4836 18.5822 25.4502 18.5798C25.4046 18.5766 25.3525 18.5734 25.2959 18.571C25.1876 18.5665 25.0761 18.5676 24.9795 18.5789C25.0038 18.6288 25.0332 18.6882 25.0684 18.7566C25.1737 18.9612 25.3206 19.2334 25.4961 19.5525C25.8468 20.19 26.3071 21.0045 26.7744 21.8201C27.713 23.458 28.6592 25.0697 28.7949 25.2771C30.4119 27.7379 37.8123 39.5696 44.9014 50.8679C48.4475 56.5197 51.9177 62.0407 54.5518 66.196C55.8689 68.2739 56.9764 70.009 57.7793 71.2478C58.1809 71.8675 58.5055 72.3613 58.7412 72.7107C58.8591 72.8855 58.953 73.0213 59.0225 73.1179C59.1054 73.2333 59.1252 73.2527 59.1074 73.2361C59.3948 73.5051 59.58 73.6547 60 73.7712C60.4665 73.9006 61.2181 73.9847 62.6367 74.033C65.4606 74.1291 70.7275 74.0786 81.167 74.0828C82.0384 74.0833 84.5864 73.8269 87.0986 74.3621C89.6391 74.9032 92.2869 76.2795 93.2988 79.6179V79.6189C93.5648 80.4973 93.7804 81.294 93.7031 88.238L93.6514 91.6091C93.6107 93.812 93.0096 95.0835 91.7803 95.698C91.2025 95.9866 90.5321 96.1033 89.8242 96.1501C89.1167 96.197 88.3225 96.1759 87.4922 96.1599H74.9297C67.3983 96.1604 57.3541 96.1616 47.2832 96.1619C37.2148 96.1622 27.1163 96.1619 19.4746 96.1609L6.40625 96.1541C4.07115 96.1169 2.71667 95.5829 2.04785 94.4363C1.72825 93.8881 1.59914 93.251 1.54785 92.5847C1.49674 91.9207 1.51963 91.1745 1.53711 90.4001C1.56185 89.3083 1.54079 88.1338 1.52148 86.9353C1.50225 85.7414 1.48503 84.525 1.52051 83.3689C1.55596 82.2138 1.64413 81.1018 1.83984 80.1169C2.03468 79.1366 2.34336 78.2453 2.84277 77.5574C3.7144 76.3573 4.74355 75.5323 6.05664 74.9812C7.35636 74.4358 8.9137 74.1672 10.8271 74.0398C12.7411 73.9124 15.0497 73.925 17.8633 73.9607C20.6828 73.9965 24.0217 74.0564 28.0186 74.0271C29.0975 74.019 29.652 73.8653 29.9102 73.699C30.0244 73.6254 30.0658 73.5594 30.084 73.5095C30.1045 73.4532 30.1141 73.3662 30.0869 73.2302C30.0285 72.9383 29.8307 72.5631 29.5381 72.114C29.3962 71.8963 29.2423 71.677 29.0869 71.4529C28.9339 71.2321 28.778 71.0065 28.6416 70.7888V70.7878C17.5946 53.1558 17.5266 53.1907 16.5762 51.657C13.4634 46.6343 11.8778 44.1444 10.2891 41.655C8.6991 39.1638 7.10525 36.6724 3.97754 31.6492C0.939269 26.7693 1.12753 22.6212 2.79883 19.491C4.44991 16.3987 7.51021 14.3717 10.1094 13.6042C11.5105 13.1902 12.2483 13.018 17.7979 12.9441C23.348 12.8701 33.7678 12.8953 54.5654 12.8953C57.9911 12.8953 59.6666 12.9831 61.0576 12.7957C62.4007 12.6146 63.4653 12.1742 65.6211 11.0457L67.4277 10.0935C71.4654 7.95164 74.2702 6.37519 76.2832 5.35718C77.4409 4.77174 78.375 4.34992 79.1689 4.09937ZM44.957 79.5798H9.29688C8.95695 79.7199 8.70652 79.9147 8.50684 80.196C8.28427 80.5098 8.105 80.9578 7.9668 81.616C7.68737 82.9469 7.60621 84.9643 7.52148 88.0681C7.49649 88.9847 7.59249 89.5375 7.75586 89.8757C7.90006 90.1741 8.1113 90.3373 8.46484 90.4333C8.85496 90.5393 9.38631 90.5537 10.127 90.532C10.842 90.511 11.741 90.4568 12.7627 90.4568C75.4973 90.465 75.5062 90.3136 84.9727 90.5359C85.96 90.5592 86.5649 90.469 86.9385 90.3093C87.2706 90.1672 87.4302 89.9672 87.5234 89.6619C87.6303 89.3116 87.6461 88.8313 87.6289 88.1423C87.6123 87.4786 87.567 86.6473 87.5898 85.698C87.6133 84.7271 87.6644 83.8944 87.6523 83.1335C87.6404 82.3795 87.5645 81.7806 87.3652 81.3093C87.1752 80.8601 86.8643 80.5054 86.3223 80.2478C85.7604 79.981 84.9316 79.81 83.7061 79.7917V79.7908C77.4875 79.698 72.7587 79.7335 69.1201 79.7839C65.4889 79.8343 62.9228 79.901 61.0547 79.8738C59.1945 79.8467 57.9499 79.7275 56.9873 79.3689C56.1176 79.0449 55.5116 78.5388 54.8955 77.8308L54.6299 77.5154C54.6056 77.4856 54.5762 77.4384 54.5723 77.4324C54.5563 77.4077 54.5336 77.3732 54.5059 77.3298C54.4503 77.2428 54.3702 77.1168 54.2676 76.9548C54.0623 76.6306 53.7653 76.1601 53.3896 75.5642C52.638 74.3721 51.5706 72.6764 50.291 70.6423C47.7319 66.5744 44.3232 61.151 40.8887 55.6873C34.0168 44.7553 27.0489 33.6705 26.5732 32.9392C25.0984 30.6735 23.8817 28.6412 22.8096 26.8767C21.7339 25.1065 20.8089 23.6151 19.9062 22.406C18.1114 20.0018 16.47 18.7983 14.0312 18.7644C12.5173 18.7434 10.2742 19.5318 8.90234 21.0994C8.22681 21.8714 7.76782 22.8252 7.69922 23.9666C7.63044 25.1109 7.95092 26.4888 8.91211 28.1082C9.73159 29.4881 12.794 34.5022 15.3145 38.365L16.3535 39.9363L16.3711 39.9636C17.295 41.5557 19.1172 44.4625 20.9229 47.3171C23.0985 50.7566 25.2564 54.1311 25.7432 54.9695L25.7441 54.9705C26.1023 55.5884 26.3108 55.8447 27.5713 57.7898C28.8186 59.7145 31.08 63.2705 35.5068 70.4294C36.3543 71.799 37.6461 72.5777 39.2168 73.0466C40.8012 73.5196 42.624 73.6641 44.4912 73.7927L44.957 73.825V79.5798Z" fill="#484848" stroke="#484848"/>
</svg>
