<svg width="100" height="100" viewBox="0 0 100 100" fill="none" xmlns="http://www.w3.org/2000/svg">
<g clip-path="url(#clip0_768_88)">
<path d="M82.5894 6.84437H17.3297C15.9532 6.84437 14.9006 5.71083 14.9006 4.41535C14.9006 3.0389 16.0342 1.98633 17.3297 1.98633H82.5894C83.9658 1.98633 85.0184 3.11987 85.0184 4.41535C85.0994 5.71083 83.9658 6.84437 82.5894 6.84437ZM85.8281 98.0137H14.1719C12.7145 98.0137 11.5 96.7992 11.5 95.3418C11.5 93.8843 12.7145 92.6698 14.1719 92.6698H85.8281C87.2855 92.6698 88.5 93.8843 88.5 95.3418C88.5 96.7992 87.2855 98.0137 85.8281 98.0137Z" fill="#41C7C7"/>
<path d="M75.7088 64.978L75.6279 64.8161C71.4985 57.61 65.9927 52.9139 60.1631 50.08C65.9927 47.1652 71.4176 42.55 75.6279 35.3439L75.7088 35.182C79.8382 28.0569 82.5911 18.3408 83.0769 5.38599H78.2998C77.895 17.3692 75.385 26.2756 71.5795 32.8339L71.4985 32.9149C66.8024 41.2546 61.5395 45.7078 54.7383 47.8129L54.4144 47.8939H54.3334C54.1715 47.9748 54.0905 48.0558 53.9286 48.1368L53.8476 48.2177L53.6857 48.3797L53.5238 48.5416V48.6226C53.4428 48.7036 53.3618 48.8655 53.2809 49.0274L53.1999 49.1084L53.038 49.6752V50.5658L53.1999 51.1326L53.2809 51.2135C53.3618 51.3755 53.4428 51.4564 53.5238 51.6184V51.6993L53.6857 51.8613V51.7803L53.8476 51.8613L53.9286 51.9422C54.0096 52.0232 54.1715 52.1042 54.3334 52.1852H54.4144L54.7383 52.3471C61.6205 54.5332 66.8024 58.9054 71.5795 67.1641L71.6605 67.3261C73.6847 70.7267 75.223 74.856 76.4375 79.6331C76.6804 81.0096 77.5711 84.0053 77.733 87.8918C73.9276 84.4911 63.4018 82.0621 50.7709 81.9002V44.4932C50.9328 44.4932 51.0138 44.4123 51.1757 44.3313V44.2503L51.8235 44.0074H51.9854C56.6005 42.55 60.2441 40.2829 63.3208 37.2871C66.5595 34.0484 69.0695 30.081 70.7698 25.6278C71.2556 24.4133 70.6889 23.0369 69.3934 22.5511C68.1789 22.0653 66.8024 22.632 66.3166 23.8466V23.9275C64.8592 27.652 62.7541 31.1336 60.0012 33.8865C57.4912 36.3155 54.4954 38.2588 50.6899 39.3923L50.6089 39.4733L50.366 39.5542L49.9612 39.6352L49.7183 39.5542L49.5564 39.4733L49.3135 39.3923C45.589 38.1778 42.4312 36.3155 40.0022 33.8865C37.1684 31.1336 35.1442 27.733 33.6868 23.9275C33.2009 22.713 31.8245 22.0653 30.691 22.5511C29.4764 23.0369 28.9097 24.3324 29.3145 25.6278C31.0148 30.081 33.4438 34.0484 36.7635 37.2871C39.7593 40.2829 43.4838 42.55 48.018 44.0074H48.099L48.7467 44.2503L48.9086 44.3313C48.9896 44.4123 49.0706 44.4123 49.2325 44.4932V81.9002C37.4112 81.9002 27.1284 83.9244 22.2703 86.7582C22.4323 84.815 22.8371 82.7099 23.5658 79.6331C24.7803 74.7751 26.3997 70.7267 28.3429 67.3261L28.4239 67.1641C33.2009 58.9054 38.3829 54.5332 45.3461 52.3471L45.589 52.1852H45.6699C45.8319 52.1042 45.9128 52.0232 46.0748 51.9422L46.1557 51.8613L46.3177 51.7803V51.6993L46.4796 51.5374V51.4564C46.5606 51.3755 46.6415 51.2135 46.7225 51.0516V50.9706C46.8035 50.8087 46.8844 50.5658 46.8844 50.4039V49.5942C46.8844 49.4323 46.8035 49.1894 46.7225 49.0274V48.9465C46.6415 48.7845 46.5606 48.6226 46.4796 48.5416V48.4607L46.3177 48.2987L46.1557 48.1368L45.9128 48.2177C45.7509 48.1368 45.6699 48.0558 45.508 47.9748H45.427L45.1841 47.8939C38.3019 45.7887 33.039 41.3355 28.2619 32.9959L28.181 32.9149C24.4565 26.3565 21.9465 17.4501 21.4607 5.46695H16.6836C17.1694 18.4217 19.9223 28.0569 24.0516 35.263L24.1326 35.4249C28.2619 42.631 33.7677 47.2461 39.5974 50.161C33.7677 52.9948 28.3429 57.6909 24.1326 64.897L24.0516 65.059C20.1652 71.8602 17.4123 80.9286 16.8455 92.9927H82.9149C82.3482 80.8476 79.6762 71.7793 75.7088 64.978Z" fill="#41C7C7"/>
</g>
<defs>
<clipPath id="clip0_768_88">
<rect width="95.9951" height="95.9951" fill="white" transform="translate(2.00391 2.00244)"/>
</clipPath>
</defs>
</svg>
