<svg width="100" height="100" viewBox="0 0 100 100" fill="none" xmlns="http://www.w3.org/2000/svg">
<path d="M50 7C26.2884 7 7 26.2884 7 50C7 73.7116 26.2884 93 50 93C73.7116 93 93 73.7116 93 50C93 26.2884 73.7116 7 50 7ZM50 14.1667C69.8343 14.1667 85.8333 30.1657 85.8333 50C85.8333 69.8343 69.8343 85.8333 50 85.8333C30.1657 85.8333 14.1667 69.8343 14.1667 50C14.1667 30.1657 30.1657 14.1667 50 14.1667ZM50 21.3333C48.021 21.3333 46.4167 22.9376 46.4167 24.9167V49.5833C46.4167 51.7925 48.2075 53.5833 50.4167 53.5833H67.9167C69.8957 53.5833 71.5 51.979 71.5 50C71.5 48.021 69.8957 46.4167 67.9167 46.4167H53.5833V24.9167C53.5833 22.9377 51.979 21.3333 50 21.3333Z" fill="#41C7C7"/>
</svg>
