<svg width="100" height="100" viewBox="0 0 100 100" fill="none" xmlns="http://www.w3.org/2000/svg">
<path d="M28.4731 95.0547C17.8512 95.0547 9.14844 87.2603 9.14844 77.6637V68.4726C9.14844 66.6254 10.6659 65.0935 12.4957 65.0935C14.3255 65.0935 15.843 66.6254 15.843 68.4726C15.843 74.1044 21.243 78.3395 28.4731 78.3395C35.7032 78.3395 41.1036 74.1044 41.1036 68.4726C41.1036 66.6254 42.6209 65.0935 44.4508 65.0935C46.2806 65.0935 47.798 66.6254 47.798 68.4726V77.6637C47.798 87.2603 39.1398 95.0547 28.4731 95.0547ZM17.0031 82.079C18.9669 85.7735 23.3853 88.2965 28.4731 88.2965C33.561 88.2965 37.9794 85.7284 39.9432 82.079C36.7744 84.0164 32.8469 85.1427 28.4731 85.1427C24.0994 85.1427 20.1719 84.0164 17.0031 82.079Z" fill="#3D3D3D"/>
<path d="M28.4731 72.7513C21.1538 72.7513 14.5933 69.3722 11.3353 64.0107C9.90711 61.6679 9.14844 58.9196 9.14844 56.1262C9.14844 51.3955 11.2014 46.9802 14.9503 43.6912C22.1804 37.2935 34.6321 37.2938 41.9068 43.6466C45.6558 46.9806 47.7534 51.3955 47.7534 56.1262C47.7534 58.9196 46.9947 61.6679 45.5665 64.0107C42.3531 69.3722 35.7925 72.7513 28.4731 72.7513ZM28.4731 45.4934C24.992 45.4934 21.7787 46.6648 19.3687 48.7823C17.0925 50.7647 15.843 53.3779 15.843 56.1262C15.843 57.7031 16.2445 59.1453 17.0478 60.4969C19.1008 63.9211 23.4745 66.0382 28.4731 66.0382C33.4717 66.0382 37.8454 63.9211 39.8538 60.542C40.6571 59.2354 41.0589 57.7482 41.0589 56.1713C41.0589 53.4229 39.8093 50.8098 37.5332 48.7823C35.1678 46.6648 31.9543 45.4934 28.4731 45.4934Z" fill="#3D3D3D"/>
<path d="M28.4731 85.1422C17.4495 85.1422 9.14844 77.9785 9.14844 68.5171V56.1271C9.14844 46.5305 17.8065 38.7361 28.4731 38.7361C33.5164 38.7361 38.3365 40.4932 41.9515 43.647C45.7004 46.981 47.798 51.3964 47.798 56.1271V68.5171C47.798 77.9785 39.4968 85.1422 28.4731 85.1422ZM28.4731 45.4943C21.5108 45.4943 15.843 50.27 15.843 56.1271V68.5171C15.843 74.1489 21.243 78.384 28.4731 78.384C35.7032 78.384 41.1036 74.1489 41.1036 68.5171V56.1271C41.1036 53.3788 39.854 50.7656 37.5779 48.7382C35.1679 46.6657 31.9543 45.4943 28.4731 45.4943Z" fill="#3D3D3D"/>
<path d="M81.4426 59.2371C74.7035 59.2371 68.9908 54.191 68.4552 47.7031C68.0982 43.9636 69.4371 40.3142 72.1149 37.656C74.3464 35.3131 77.5152 34.0066 80.8624 34.0066H90.1901C94.6085 34.1418 98.0004 37.656 98.0004 41.9812V51.2624C98.0004 55.5877 94.6085 59.1019 90.324 59.2371H81.4426ZM90.0562 40.7648H80.9071C79.345 40.7648 77.9168 41.3505 76.8903 42.4318C75.5961 43.6933 74.9712 45.4054 75.1498 47.1174C75.3729 50.091 78.2292 52.4789 81.4426 52.4789H90.1901C90.7703 52.4789 91.3059 51.9383 91.3059 51.2624V41.9812C91.3059 41.3054 90.7703 40.8098 90.0562 40.7648Z" fill="#3D3D3D"/>
<path d="M67.874 88.2958H56.7165C54.8866 88.2958 53.3692 86.7639 53.3692 84.9167C53.3692 83.0695 54.8866 81.5376 56.7165 81.5376H67.874C79.3886 81.5376 86.8418 74.0135 86.8418 62.3895V59.2357H81.4416C74.7024 59.2357 68.9898 54.1896 68.4542 47.7017C68.0972 43.9622 69.4365 40.3128 72.1143 37.6546C74.3458 35.3118 77.5141 34.0052 80.8614 34.0052H86.7972V30.8514C86.7972 20.3086 80.6833 13.0548 70.7754 11.8834C69.7043 11.7031 68.7666 11.7032 67.8294 11.7032H27.6624C26.5912 11.7032 25.5647 11.7933 24.5382 11.9285C14.7196 13.19 8.69453 20.3987 8.69453 30.8514V39.8623C8.69453 41.7095 7.1771 43.2413 5.34726 43.2413C3.51743 43.2413 2 41.7095 2 39.8623V30.8514C2 16.9746 10.4799 6.92751 23.6458 5.26049C24.8508 5.08028 26.2342 4.94507 27.6624 4.94507H67.8294C68.9005 4.94507 70.2841 4.99012 71.7122 5.21539C84.8781 6.74725 93.4917 16.8394 93.4917 30.8514V37.3843C93.4917 39.2315 91.9743 40.7634 90.1445 40.7634H80.8614C79.2993 40.7634 77.8716 41.3491 76.8451 42.4304C75.5509 43.6919 74.9256 45.404 75.1041 47.116C75.3273 50.0896 78.184 52.4775 81.3974 52.4775H90.1891C92.0189 52.4775 93.5364 54.0094 93.5364 55.8566V62.3895C93.5364 77.8882 83.2268 88.2958 67.874 88.2958Z" fill="#3D3D3D"/>
</svg>
