<svg width="100" height="100" viewBox="0 0 100 100" fill="none" xmlns="http://www.w3.org/2000/svg">
<g clip-path="url(#clip0_996_446)">
<path fill-rule="evenodd" clip-rule="evenodd" d="M97 25.0911C97 18.0119 91.2613 12.2729 84.1818 12.2729H15.8182C8.73891 12.2729 3 18.0119 3 25.0911V67.8184C3 74.8979 8.73891 80.6366 15.8182 80.6366H20.0909C22.4507 80.6366 24.3636 78.7237 24.3636 76.3638C24.3636 74.004 22.4507 72.0911 20.0909 72.0911H15.8182C13.4584 72.0911 11.5455 70.1782 11.5455 67.8184V42.182H88.4546V67.8184C88.4546 70.1782 86.5416 72.0911 84.1818 72.0911H79.9091C77.5493 72.0911 75.6364 74.004 75.6364 76.3638C75.6364 78.7237 77.5493 80.6366 79.9091 80.6366H84.1818C91.2613 80.6366 97 74.8979 97 67.8184V25.0911ZM88.4546 33.6366V25.0911C88.4546 22.7314 86.5416 20.8184 84.1818 20.8184H15.8182C13.4584 20.8184 11.5455 22.7313 11.5455 25.0911V33.6366H88.4546Z" fill="#41C7C7"/>
<path d="M46.5874 57.0456C46.5874 55.1628 48.1137 53.6365 49.9965 53.6365C51.8793 53.6365 53.4056 55.1628 53.4056 57.0456V76.113L57.8131 71.7061C59.1446 70.3741 61.3029 70.3741 62.6344 71.7061C63.9656 73.0366 63.9656 75.1956 62.6344 76.5265L52.4088 86.731C51.0772 88.0602 48.9206 88.0588 47.59 86.7286L37.3658 76.504C36.0342 75.1724 36.0342 73.0141 37.3658 71.6825C38.6971 70.3516 40.8557 70.3516 42.1869 71.6825L46.5874 76.083V57.0456Z" fill="#41C7C7"/>
</g>
<defs>
<clipPath id="clip0_996_446">
<rect width="94" height="75.4542" fill="white" transform="translate(3 12.2729)"/>
</clipPath>
</defs>
</svg>
