<svg width="100" height="100" viewBox="0 0 100 100" fill="none" xmlns="http://www.w3.org/2000/svg">
<circle cx="50" cy="27.3818" r="16.5" stroke="#41C7C7" stroke-width="7"/>
<path d="M17.501 89.1182C17.508 81.7112 17.5648 75.9094 18.0244 71.2694C18.5563 65.8999 19.5861 62.6867 21.2118 60.5861C22.7503 58.5981 25.2121 57.1186 29.8289 56.1699C34.517 55.2065 40.97 54.8818 50 54.8818C59.03 54.8818 65.483 55.2065 70.1711 56.1699C74.7879 57.1186 77.2497 58.5981 78.7882 60.5861C80.4139 62.6867 81.4437 65.8999 81.9756 71.2694C82.4352 75.9094 82.492 81.7112 82.499 89.1182H82.4811H82.4359H82.3904H82.3445H82.2982H82.2515H82.2044H82.1569H82.1091H82.0608H82.0122H81.9631H81.9136H81.8638H81.8135H81.7628H81.7118H81.6603H81.6084H81.5561H81.5034H81.4502H81.3967H81.3427H81.2883H81.2335H81.1782H81.1226H81.0665H81.01H80.953H80.8956H80.8378H80.7796H80.7209H80.6618H80.6022H80.5422H80.4818H80.4209H80.3595H80.2977H80.2355H80.1728H80.1097H80.0461H79.982H79.9175H79.8525H79.7871H79.7212H79.6549H79.5881H79.5208H79.453H79.3848H79.3161H79.2469H79.1773H79.1071H79.0365H78.9654H78.8939H78.8218H78.7493H78.6762H78.6027H78.5287H78.4542H78.3792H78.3038H78.2278H78.1513H78.0743H77.9968H77.9188H77.8404H77.7614H77.6819H77.6018H77.5213H77.4403H77.3587H77.2767H77.1941H77.111H77.0273H76.9432H76.8585H76.7733H76.6876H76.6013H76.5145H76.4272H76.3393H76.2509H76.162H76.0725H75.9825H75.892H75.8009H75.7092H75.617H75.5243H75.431H75.3372H75.2428H75.1478H75.0523H74.9562H74.8596H74.7624H74.6647H74.5664H74.4675H74.368H74.268H74.1674H74.0662H73.9645H73.8622H73.7593H73.6558H73.5517H73.4471H73.3419H73.236H73.1296H73.0226H72.9151H72.8069H72.6981H72.5887H72.4788H72.3682H72.2571H72.1453H72.0329H71.9199H71.8063H71.6922H71.5773H71.4619H71.3459H71.2292H71.112H70.9941H70.8756H70.7565H70.6367H70.5163H70.3953H70.2737H70.1514H70.0285H69.905H69.7808H69.656H69.5306H69.4045H69.2778H69.1504H69.0224H68.8938H68.7645H68.6345H68.5039H68.3726H68.2407H68.1081H67.9749H67.841H67.7065H67.5713H67.4354H67.2988H67.1616H67.0237H66.8852H66.746H66.6061H66.4655H66.3242H66.1823H66.0397H65.8964H65.7524H65.6077H65.4624H65.3163H65.1696H65.0222H64.8741H64.7252H64.5757H64.4255H64.2746H64.123H63.9707H63.8176H63.6639H63.5095H63.3543H63.1985H63.0419H62.8846H62.7266H62.5679H62.4084H62.2483H62.0874H61.9258H61.7634H61.6003H61.4365H61.272H61.1067H60.9407H60.774H60.6065H60.4383H60.2694H60.0997H59.9292H59.758H59.5861H59.4134H59.24H59.0658H58.8909H58.7152H58.5387H58.3615H58.1835H58.0048H57.8253H57.645H57.464H57.2822H57.0996H56.9162H56.7321H56.5472H56.3616H56.1751H55.9879H55.7999H55.6111H55.4215H55.2311H55.04H54.848H54.6553H54.4617H54.2674H54.0723H53.8764H53.6796H53.4821H53.2838H53.0847H52.8847H52.684H52.4824H52.2801H52.0769H51.8729H51.6681H51.4624H51.256H51.0487H50.8406H50.6317H50.422H50.2114H50H49.7886H49.578H49.3683H49.1594H48.9513H48.744H48.5376H48.3319H48.1271H47.9231H47.72H47.5176H47.316H47.1153H46.9153H46.7162H46.5179H46.3204H46.1236H45.9277H45.7326H45.5383H45.3447H45.152H44.96H44.7689H44.5785H44.3889H44.2001H44.0121H43.8249H43.6384H43.4528H43.2679H43.0838H42.9004H42.7178H42.536H42.355H42.1747H41.9952H41.8165H41.6385H41.4613H41.2848H41.1091H40.9342H40.76H40.5866H40.4139H40.242H40.0708H39.9003H39.7306H39.5617H39.3935H39.226H39.0593H38.8933H38.728H38.5635H38.3997H38.2366H38.0743H37.9126H37.7518H37.5916H37.4321H37.2734H37.1154H36.9581H36.8015H36.6457H36.4905H36.3361H36.1824H36.0293H35.877H35.7254H35.5745H35.4243H35.2748H35.1259H34.9778H34.8304H34.6837H34.5376H34.3923H34.2476H34.1036H33.9603H33.8177H33.6758H33.5345H33.3939H33.254H33.1148H32.9763H32.8384H32.7012H32.5646H32.4287H32.2935H32.159H32.0251H31.8919H31.7593H31.6274H31.4961H31.3655H31.2355H31.1062H30.9776H30.8496H30.7222H30.5955H30.4694H30.344H30.2192H30.095H29.9715H29.8486H29.7263H29.6047H29.4837H29.3633H29.2435H29.1244H29.0059H28.888H28.7708H28.6541H28.5381H28.4227H28.3079H28.1937H28.0801H27.9671H27.8547H27.743H27.6318H27.5212H27.4113H27.3019H27.1931H27.0849H26.9774H26.8704H26.764H26.6581H26.5529H26.4483H26.3442H26.2407H26.1378H26.0355H25.9338H25.8326H25.732H25.632H25.5325H25.4336H25.3353H25.2376H25.1404H25.0438H24.9477H24.8522H24.7572H24.6628H24.569H24.4757H24.383H24.2908H24.1991H24.108H24.0175H23.9275H23.838H23.7491H23.6607H23.5728H23.4855H23.3987H23.3124H23.2267H23.1415H23.0568H22.9727H22.889H22.8059H22.7234H22.6413H22.5597H22.4787H22.3982H22.3181H22.2386H22.1596H22.0812H22.0032H21.9257H21.8487H21.7722H21.6962H21.6208H21.5458H21.4713H21.3973H21.3238H21.2507H21.1782H21.1061H21.0346H20.9635H20.8929H20.8228H20.7531H20.6839H20.6152H20.547H20.4792H20.412H20.3451H20.2788H20.2129H20.1475H20.0825H20.018H19.9539H19.8903H19.8272H19.7645H19.7023H19.6405H19.5791H19.5183H19.4578H19.3978H19.3382H19.2791H19.2204H19.1622H19.1044H19.047H18.99H18.9335H18.8774H18.8218H18.7665H18.7117H18.6573H18.6033H18.5498H18.4967H18.4439H18.3916H18.3397H18.2882H18.2372H18.1865H18.1362H18.0864H18.0369H17.9878H17.9392H17.8909H17.8431H17.7956H17.7485H17.7018H17.6555H17.6096H17.5641H17.5189H17.501Z" stroke="#41C7C7" stroke-width="7"/>
</svg>
