<svg width="100" height="100" viewBox="0 0 100 100" fill="none" xmlns="http://www.w3.org/2000/svg">
<path d="M90.625 28.125V71.875C90.625 73.5326 89.9665 75.1223 88.7944 76.2944C87.6223 77.4665 86.0326 78.125 84.375 78.125H15.625C13.9674 78.125 12.3777 77.4665 11.2056 76.2944C10.0335 75.1223 9.375 73.5326 9.375 71.875V28.125M90.625 28.125C90.625 26.4674 89.9665 24.8777 88.7944 23.7056C87.6223 22.5335 86.0326 21.875 84.375 21.875H15.625C13.9674 21.875 12.3777 22.5335 11.2056 23.7056C10.0335 24.8777 9.375 26.4674 9.375 28.125M90.625 28.125L53.5563 53.7875C52.5113 54.5105 51.2707 54.8979 50 54.8979C48.7293 54.8979 47.4887 54.5105 46.4438 53.7875L9.375 28.125" stroke="#292D32" stroke-width="7" stroke-linecap="round" stroke-linejoin="round"/>
</svg>
