<svg width="100" height="100" viewBox="0 0 100 100" fill="none" xmlns="http://www.w3.org/2000/svg">
<path d="M39.8438 43.5391H86.7188C87.1484 43.5391 87.5 43.1875 87.5 42.7578V37.2891C87.5 36.8594 87.1484 36.5078 86.7188 36.5078H39.8438C39.4141 36.5078 39.0625 36.8594 39.0625 37.2891V42.7578C39.0625 43.1875 39.4141 43.5391 39.8438 43.5391ZM39.0625 63.4609C39.0625 63.8906 39.4141 64.2422 39.8438 64.2422H86.7188C87.1484 64.2422 87.5 63.8906 87.5 63.4609V57.9922C87.5 57.5625 87.1484 57.2109 86.7188 57.2109H39.8438C39.4141 57.2109 39.0625 57.5625 39.0625 57.9922V63.4609ZM88.2812 16H11.7188C11.2891 16 10.9375 16.3516 10.9375 16.7812V22.25C10.9375 22.6797 11.2891 23.0312 11.7188 23.0312H88.2812C88.7109 23.0312 89.0625 22.6797 89.0625 22.25V16.7812C89.0625 16.3516 88.7109 16 88.2812 16ZM88.2812 77.7188H11.7188C11.2891 77.7188 10.9375 78.0703 10.9375 78.5V83.9688C10.9375 84.3984 11.2891 84.75 11.7188 84.75H88.2812C88.7109 84.75 89.0625 84.3984 89.0625 83.9688V78.5C89.0625 78.0703 88.7109 77.7188 88.2812 77.7188ZM11.2695 51.0488L26.5332 63.0703C27.0996 63.5195 27.9395 63.1191 27.9395 62.3965V38.3535C27.9395 37.6309 27.1094 37.2305 26.5332 37.6797L11.2695 49.7012C11.1669 49.781 11.0838 49.8832 11.0267 49.9999C10.9696 50.1167 10.9399 50.245 10.9399 50.375C10.9399 50.505 10.9696 50.6333 11.0267 50.7501C11.0838 50.8668 11.1669 50.969 11.2695 51.0488Z" fill="#41C7C7"/>
</svg>
