<svg width="100" height="100" viewBox="0 0 100 100" fill="none" xmlns="http://www.w3.org/2000/svg">
<path d="M54.8469 81.1569H46.1707C40.0328 81.1569 35.0024 76.2786 35.0024 70.2678C35.0024 68.4819 36.5715 67.001 38.4637 67.001C40.3558 67.001 41.9249 68.4819 41.9249 70.2678C41.9249 72.6634 43.8171 74.6234 46.1707 74.6234H54.8469C56.6467 74.6234 58.0773 73.0989 58.0773 71.226C58.0773 68.8739 57.3851 68.5255 55.816 68.0028L41.9249 63.4294C38.9713 62.4711 35.0024 60.424 35.0024 54.0211C35.0024 48.5767 39.5713 44.0903 45.1554 44.0903H53.8316C59.9695 44.0903 64.9998 48.9687 64.9998 54.9794C64.9998 56.7652 63.4307 58.2461 61.5386 58.2461C59.6464 58.2461 58.0773 56.7652 58.0773 54.9794C58.0773 52.5839 56.1852 50.6238 53.8316 50.6238H45.1554C43.3556 50.6238 41.9249 52.1483 41.9249 54.0211C41.9249 56.3732 42.6172 56.7216 44.1863 57.2443L58.0773 61.8178C61.0309 62.776 64.9998 64.8232 64.9998 71.226C64.9998 76.7141 60.431 81.1569 54.8469 81.1569Z" fill="white"/>
<path d="M54.8469 81.1569H46.1707C40.0328 81.1569 35.0024 76.2786 35.0024 70.2678C35.0024 68.4819 36.5715 67.001 38.4637 67.001C40.3558 67.001 41.9249 68.4819 41.9249 70.2678C41.9249 72.6634 43.8171 74.6234 46.1707 74.6234H54.8469C56.6467 74.6234 58.0773 73.0989 58.0773 71.226C58.0773 68.8739 57.3851 68.5255 55.816 68.0028L41.9249 63.4294C38.9713 62.4711 35.0024 60.424 35.0024 54.0211C35.0024 48.5767 39.5713 44.0903 45.1554 44.0903H53.8316C59.9695 44.0903 64.9998 48.9687 64.9998 54.9794C64.9998 56.7652 63.4307 58.2461 61.5386 58.2461C59.6464 58.2461 58.0773 56.7652 58.0773 54.9794C58.0773 52.5839 56.1852 50.6238 53.8316 50.6238H45.1554C43.3556 50.6238 41.9249 52.1483 41.9249 54.0211C41.9249 56.3732 42.6172 56.7216 44.1863 57.2443L58.0773 61.8178C61.0309 62.776 64.9998 64.8232 64.9998 71.226C64.9998 76.7141 60.431 81.1569 54.8469 81.1569Z" stroke="white"/>
<path d="M50.4637 85.5114C48.5715 85.5114 47.0024 84.0304 47.0024 82.2446V43.0436C47.0024 41.2578 48.5715 39.7769 50.4637 39.7769C52.3558 39.7769 53.9249 41.2578 53.9249 43.0436V82.2446C53.9249 84.0304 52.3558 85.5114 50.4637 85.5114Z" fill="white"/>
<path d="M50.4637 85.5114C48.5715 85.5114 47.0024 84.0304 47.0024 82.2446V43.0436C47.0024 41.2578 48.5715 39.7769 50.4637 39.7769C52.3558 39.7769 53.9249 41.2578 53.9249 43.0436V82.2446C53.9249 84.0304 52.3558 85.5114 50.4637 85.5114Z" stroke="white"/>
<path d="M35.8245 6.96453L35.8184 6.96996L35.8126 6.97559C32.1105 10.5457 29.9854 15.1792 29.9306 20.2057H9.41897C7.91213 20.2057 6.63186 21.2824 6.53256 22.775C6.53254 22.7753 6.53252 22.7756 6.5325 22.7759L1.5195 95.473C1.42571 96.3024 1.7227 97.0473 2.29707 97.5968C2.88137 98.2316 3.65448 98.4976 4.40509 98.4976H95.5304C97.1597 98.4976 98.4014 97.2283 98.4966 95.7002L98.4976 95.6846V95.6691V95.6564C98.4976 95.4476 98.4977 95.2421 98.4125 94.9707L93.4826 22.851C93.3837 21.3579 92.1033 20.2808 90.5961 20.2808H70.0845C69.9704 9.85391 60.9292 1.50244 50.0076 1.50244C44.6282 1.50244 39.6547 3.50333 35.8245 6.96453ZM70.006 30.3757V25.7876H87.9004L92.4487 92.9908H7.4868L12.0351 25.7876H29.9295V30.3757C28.6275 31.277 27.8603 32.584 27.8603 34.0759C27.8603 36.7074 30.1014 38.7823 32.8171 38.7823C35.5328 38.7823 37.7739 36.7074 37.7739 34.0759C37.7739 32.584 37.0067 31.277 35.7047 30.3757V25.7876H64.2309V30.3757C62.9288 31.277 62.1616 32.584 62.1616 34.0759C62.1616 36.7074 64.4028 38.7823 67.1184 38.7823C69.8341 38.7823 72.0752 36.7074 72.0752 34.0759C72.0752 32.584 71.3081 31.277 70.006 30.3757ZM64.3089 20.3559H35.7062C35.8201 13.0157 42.2071 7.08437 50.0076 7.08437C57.808 7.08437 64.195 13.0157 64.3089 20.3559Z" fill="white" stroke="white"/>
</svg>
