<svg width="100" height="100" viewBox="0 0 100 100" fill="none" xmlns="http://www.w3.org/2000/svg">
<path d="M71.7061 93.9999C68.0837 94.0012 64.5239 93.0578 61.3792 91.2631L60.9357 91.0137C40.4903 79.3398 23.3852 62.6279 11.2548 42.4746L8.94234 38.6276C6.57389 34.6946 5.59245 30.0835 6.15442 25.5291C6.7164 20.9747 8.78945 16.7391 12.0432 13.4973L16.6505 8.89843C20.5222 5.03386 26.819 5.03386 30.6872 8.89843L40.8381 19.0307C42.3657 20.5627 43.3516 22.55 43.6463 24.6915C43.941 26.8329 43.5285 29.0119 42.4712 30.8984L38.6559 37.6614C38.5757 37.8037 38.5443 37.9683 38.5665 38.13C38.5888 38.2918 38.6634 38.4418 38.779 38.5573L61.3792 61.1159C61.4967 61.2308 61.6484 61.3046 61.8115 61.3261C61.9746 61.3477 62.1403 61.3158 62.2838 61.2353L69.0487 57.4305L69.0522 57.427C70.9425 56.3728 73.1252 55.9617 75.2703 56.2558C77.4155 56.55 79.4063 57.5333 80.9418 59.0571L91.0962 69.1964C94.9679 73.061 94.9679 79.3462 91.0962 83.2072L86.2848 88.0063C84.3686 89.9127 82.0947 91.4233 79.5932 92.4517C77.0916 93.4802 74.4115 94.0063 71.7061 93.9999ZM23.6689 13.0265C22.9297 13.0265 22.1906 13.3076 21.6274 13.8697L17.0201 18.465C14.8786 20.5987 13.5142 23.3865 13.1442 26.3841C12.7742 29.3817 13.42 32.4167 14.9787 35.0054L17.2911 38.8524C28.7976 57.9706 45.0227 73.8248 64.4167 84.9006L64.8602 85.1501C70.2313 88.2171 76.9892 87.3494 81.3044 83.0351L86.1158 78.236C86.384 77.9685 86.5968 77.6508 86.7419 77.3012C86.8871 76.9515 86.9618 76.5768 86.9618 76.1983C86.9618 75.8198 86.8871 75.4451 86.7419 75.0954C86.5968 74.7458 86.384 74.4281 86.1158 74.1606L75.9614 64.0214C75.5145 63.5779 74.9349 63.2921 74.3105 63.2071C73.6861 63.1222 73.0511 63.2427 72.5015 63.5506L65.7366 67.3554C64.2533 68.1844 62.5398 68.5083 60.8555 68.2782C59.1712 68.0481 57.6079 67.2764 56.4023 66.0801L33.8022 43.5215C32.6024 42.3196 31.8284 40.7597 31.5978 39.0787C31.3672 37.3977 31.6926 35.6875 32.5245 34.2079L36.3399 27.4484C36.6464 26.8998 36.7658 26.2665 36.6801 25.6441C36.5944 25.0218 36.3082 24.4441 35.8647 23.9984L25.7103 13.8697C25.4424 13.6019 25.1242 13.3896 24.7738 13.2449C24.4235 13.1002 24.048 13.026 23.6689 13.0265Z" fill="#F65063"/>
</svg>
