<svg width="100" height="100" viewBox="0 0 100 100" fill="none" xmlns="http://www.w3.org/2000/svg">
<g clip-path="url(#clip0_938_156)">
<path fill-rule="evenodd" clip-rule="evenodd" d="M49.9998 4.76025C47.4551 4.76025 45.1114 5.39272 42.546 6.45377C40.0685 7.47833 37.1911 8.98841 33.608 10.8688L24.9072 15.4347C20.5096 17.7424 16.9903 19.5892 14.2731 21.4038C11.458 23.2838 9.28977 25.2633 7.7108 27.9447C6.13714 30.6171 5.42921 33.5109 5.08973 36.957C4.76021 40.3021 4.76021 44.4158 4.76025 49.5899V50.4097C4.76021 55.5835 4.76021 59.6975 5.08973 63.0427C5.42921 66.4889 6.13714 69.3826 7.7108 72.0549C9.28977 74.7364 11.458 76.716 14.2731 78.5959C16.9902 80.4105 20.5092 82.2571 24.9065 84.5646L33.6078 89.131C37.1908 91.0113 40.0685 92.5213 42.546 93.546C45.1114 94.6069 47.4551 95.2394 49.9998 95.2394C52.5446 95.2394 54.8882 94.6069 57.4536 93.546C59.9311 92.5213 62.8087 91.0113 66.3917 89.131L75.0924 84.565C79.4902 82.2571 83.0092 80.4105 85.7265 78.5959C88.5419 76.716 90.71 74.7364 92.289 72.0549C93.8624 69.3826 94.5703 66.4889 94.9099 63.0427C95.2394 59.6975 95.2394 55.5839 95.2394 50.4101V49.5895C95.2394 44.4158 95.2394 40.302 94.9099 36.957C94.5703 33.5109 93.8624 30.6171 92.289 27.9447C90.71 25.2633 88.5419 23.2838 85.7265 21.4038C83.0092 19.5892 79.4902 17.7424 75.0924 15.4347L66.3917 10.8688C62.8087 8.98845 59.9311 7.47837 57.4536 6.45377C54.8882 5.39272 52.5446 4.76025 49.9998 4.76025ZM36.4103 16.5271C40.1545 14.5622 42.7783 13.1887 44.9583 12.2871C47.0801 11.4096 48.5711 11.0728 49.9998 11.0728C51.4286 11.0728 52.9196 11.4096 55.0414 12.2871C57.2213 13.1887 59.8452 14.5622 63.5894 16.5271L72.0061 20.9439C76.5919 23.3505 79.8138 25.0458 82.2209 26.6533C83.4085 27.4465 84.3415 28.1829 85.0952 28.9234L49.9998 46.4711L14.9046 28.9234C15.658 28.1829 16.5912 27.4465 17.7788 26.6533C20.186 25.0458 23.4078 23.3504 27.9936 20.9439L36.4103 16.5271ZM11.8626 34.46C11.6501 35.3601 11.4894 36.3822 11.3718 37.5759C11.0763 40.5757 11.0728 44.3792 11.0728 49.7536V50.246C11.0728 55.6205 11.0763 59.424 11.3718 62.4237C11.6608 65.3577 12.2099 67.2548 13.1503 68.8519C14.0854 70.4397 15.4379 71.783 17.7788 73.3464C20.186 74.954 23.4078 76.6491 27.9936 79.0558L36.4103 83.4725C40.1545 85.4374 42.7783 86.811 44.9583 87.7124C45.6467 87.9973 46.2687 88.225 46.8436 88.403V51.9504L11.8626 34.46ZM53.1561 88.403C53.7309 88.225 54.3529 87.9973 55.0414 87.7124C57.2213 86.811 59.8452 85.4374 63.5894 83.4725L72.0061 79.0558C76.5919 76.6491 79.8138 74.954 82.2209 73.3464C84.5616 71.783 85.9142 70.4397 86.8493 68.8519C87.7898 67.2548 88.339 65.3577 88.6277 62.4237C88.9235 59.424 88.9269 55.6205 88.9269 50.246V49.7536C88.9269 44.3792 88.9235 40.5757 88.6277 37.5759C88.5103 36.3822 88.3495 35.3601 88.137 34.46L53.1561 51.9504V88.403Z" fill="#F65063"/>
</g>
<defs>
<clipPath id="clip0_938_156">
<rect width="90.4792" height="90.4792" fill="white" transform="translate(4.76025 4.76025)"/>
</clipPath>
</defs>
</svg>
