<svg width="100" height="100" viewBox="0 0 100 100" fill="none" xmlns="http://www.w3.org/2000/svg">
<path fill-rule="evenodd" clip-rule="evenodd" d="M49.9998 8.00049C52.1057 8.00049 54.1817 8.15649 56.2036 8.45648L59.2515 17.6902C61.9215 18.4522 64.4594 19.5382 66.8113 20.9062L75.5711 16.6823C78.673 19.0642 81.4329 21.8721 83.7609 25.016L79.381 33.6978C80.707 36.0738 81.7509 38.6297 82.4649 41.3176L91.6447 44.5155C92.1505 48.3975 92.1161 52.3307 91.5427 56.2032L82.3089 59.2511C81.5521 61.8938 80.472 64.4329 79.093 66.8109L83.3169 75.5707C80.9317 78.6735 78.127 81.4298 74.9831 83.7605L66.3014 79.3806C63.8997 80.7218 61.34 81.7578 58.6816 82.4645L55.4836 91.6443C51.6017 92.1501 47.6685 92.1158 43.796 91.5423L40.748 82.3085C38.1054 81.5517 35.5662 80.4716 33.1882 79.0926L24.4285 83.3165C21.3257 80.9314 18.5694 78.1266 16.2387 74.9827L20.6186 66.301C19.2807 63.8977 18.2449 61.3384 17.5347 58.6812L8.35491 55.4772C7.84969 51.5973 7.88401 47.6661 8.45691 43.7956L17.6907 40.7476C18.4526 38.0777 19.5386 35.5398 20.9066 33.1878L16.6827 24.4281C19.0679 21.3253 21.8726 18.569 25.0165 16.2383L33.6982 20.6182C36.0999 19.277 38.6596 18.241 41.318 17.5342L44.5219 8.35448C46.3383 8.11817 48.1681 7.99993 49.9998 8.00049Z" stroke="#F76D62" stroke-width="6" stroke-linecap="round" stroke-linejoin="round"/>
<path d="M50 67.9991C59.9409 67.9991 67.9995 59.9404 67.9995 49.9995C67.9995 40.0587 59.9409 32 50 32C40.0591 32 32.0005 40.0587 32.0005 49.9995C32.0005 59.9404 40.0591 67.9991 50 67.9991Z" stroke="#F76D62" stroke-width="6" stroke-linecap="round" stroke-linejoin="round"/>
</svg>
