<svg width="100" height="100" viewBox="0 0 100 100" fill="none" xmlns="http://www.w3.org/2000/svg">
<g clip-path="url(#clip0_938_137)">
<path d="M82.5894 6.84437H17.3297C15.9532 6.84437 14.9006 5.71083 14.9006 4.41535C14.9006 3.0389 16.0342 1.98633 17.3297 1.98633H82.5894C83.9658 1.98633 85.0184 3.11987 85.0184 4.41535C85.0994 5.71083 83.9658 6.84437 82.5894 6.84437ZM85.8281 98.0137H14.1719C12.7145 98.0137 11.5 96.7992 11.5 95.3418C11.5 93.8843 12.7145 92.6698 14.1719 92.6698H85.8281C87.2855 92.6698 88.5 93.8843 88.5 95.3418C88.5 96.7992 87.2855 98.0137 85.8281 98.0137Z" fill="#F65063"/>
<path d="M75.7074 64.9778L75.6264 64.8158C71.4971 57.6097 65.9913 52.9136 60.1616 50.0798C65.9913 47.1649 71.4161 42.5498 75.6264 35.3437L75.7074 35.1818C79.8367 28.0566 82.5896 18.3405 83.0754 5.38574H78.2983C77.8935 17.3689 75.3835 26.2753 71.578 32.8337L71.4971 32.9147C66.801 41.2543 61.5381 45.7075 54.7368 47.8127L54.4129 47.8936H54.332C54.17 47.9746 54.0891 48.0556 53.9271 48.1365L53.8462 48.2175L53.6842 48.3794L53.5223 48.5414V48.6223C53.4413 48.7033 53.3604 48.8652 53.2794 49.0272L53.1984 49.1081L53.0365 49.6749V50.5656L53.1984 51.1323L53.2794 51.2133C53.3604 51.3752 53.4413 51.4562 53.5223 51.6181V51.6991L53.6842 51.861V51.7801L53.8462 51.861L53.9271 51.942C54.0081 52.023 54.17 52.1039 54.332 52.1849H54.4129L54.7368 52.3468C61.619 54.533 66.801 58.9052 71.578 67.1639L71.659 67.3258C73.6832 70.7264 75.2216 74.8558 76.4361 79.6329C76.679 81.0093 77.5696 84.0051 77.7316 87.8915C73.9261 84.4909 63.4003 82.0619 50.7694 81.8999V44.493C50.9313 44.493 51.0123 44.412 51.1742 44.3311V44.2501L51.822 44.0072H51.9839C56.5991 42.5498 60.2426 40.2827 63.3194 37.2869C66.5581 34.0482 69.068 30.0808 70.7684 25.6276C71.2542 24.4131 70.6874 23.0366 69.3919 22.5508C68.1774 22.065 66.801 22.6318 66.3151 23.8463V23.9273C64.8577 27.6518 62.7526 31.1334 59.9997 33.8863C57.4897 36.3153 54.4939 38.2585 50.6884 39.3921L50.6075 39.473L50.3646 39.554L49.9597 39.635L49.7168 39.554L49.5549 39.473L49.312 39.3921C45.5875 38.1775 42.4298 36.3153 40.0007 33.8863C37.1669 31.1334 35.1427 27.7327 33.6853 23.9273C33.1995 22.7128 31.823 22.065 30.6895 22.5508C29.475 23.0366 28.9082 24.3321 29.313 25.6276C31.0134 30.0808 33.4424 34.0482 36.762 37.2869C39.7578 40.2827 43.4823 42.5498 48.0165 44.0072H48.0975L48.7452 44.2501L48.9072 44.3311C48.9881 44.412 49.0691 44.412 49.231 44.493V81.8999C37.4098 81.8999 27.1269 83.9241 22.2689 86.758C22.4308 84.8148 22.8357 82.7096 23.5644 79.6329C24.7789 74.7748 26.3982 70.7264 28.3414 67.3258L28.4224 67.1639C33.1995 58.9052 38.3814 54.533 45.3446 52.3468L45.5875 52.1849H45.6685C45.8304 52.1039 45.9114 52.023 46.0733 51.942L46.1543 51.861L46.3162 51.7801V51.6991L46.4781 51.5372V51.4562C46.5591 51.3752 46.6401 51.2133 46.721 51.0514V50.9704C46.802 50.8085 46.883 50.5656 46.883 50.4036V49.594C46.883 49.432 46.802 49.1891 46.721 49.0272V48.9462C46.6401 48.7843 46.5591 48.6223 46.4781 48.5414V48.4604L46.3162 48.2985L46.1543 48.1365L45.9114 48.2175C45.7494 48.1365 45.6685 48.0556 45.5065 47.9746H45.4256L45.1827 47.8936C38.3004 45.7885 33.0375 41.3353 28.2605 32.9956L28.1795 32.9147C24.455 26.3563 21.945 17.4499 21.4592 5.46671H16.6821C17.1679 18.4215 19.9208 28.0566 24.0502 35.2627L24.1311 35.4247C28.2605 42.6308 33.7663 47.2459 39.5959 50.1607C33.7663 52.9946 28.3414 57.6907 24.1311 64.8968L24.0502 65.0587C20.1637 71.86 17.4108 80.9283 16.8441 92.9925H82.9135C82.3467 80.8474 79.6748 71.779 75.7074 64.9778Z" fill="#F65063"/>
</g>
<defs>
<clipPath id="clip0_938_137">
<rect width="95.9951" height="95.9951" fill="white" transform="translate(2.00244 2.00244)"/>
</clipPath>
</defs>
</svg>
