<svg width="51" height="51" viewBox="0 0 51 51" fill="none" xmlns="http://www.w3.org/2000/svg">
<g clip-path="url(#clip0_1371_183)">
<rect x="2" y="2.10449" width="47" height="47" rx="23.5" stroke="#41C7C7" stroke-width="3"/>
<path d="M17.7386 37.1045V34.559L25.6136 26.3999C26.4545 25.5136 27.1477 24.7371 27.6932 24.0704C28.2462 23.3962 28.6591 22.756 28.9318 22.1499C29.2045 21.5439 29.3409 20.8999 29.3409 20.2181C29.3409 19.4454 29.1591 18.7787 28.7955 18.2181C28.4318 17.6499 27.9356 17.2143 27.3068 16.9113C26.678 16.6007 25.9697 16.4454 25.1818 16.4454C24.3485 16.4454 23.6212 16.6159 23 16.9568C22.3788 17.2977 21.9015 17.7787 21.5682 18.3999C21.2348 19.0212 21.0682 19.7484 21.0682 20.5818H17.7159C17.7159 19.1651 18.0417 17.9265 18.6932 16.8659C19.3447 15.8052 20.2386 14.9833 21.375 14.3999C22.5114 13.809 23.803 13.5136 25.25 13.5136C26.7121 13.5136 28 13.8052 29.1136 14.3886C30.2348 14.9643 31.1098 15.7522 31.7386 16.7522C32.3674 17.7446 32.6818 18.8659 32.6818 20.1159C32.6818 20.9795 32.5189 21.8242 32.1932 22.6499C31.875 23.4757 31.3182 24.3962 30.5227 25.4113C29.7273 26.4189 28.6212 27.6424 27.2045 29.0818L22.5795 33.9227V34.0931H33.0568V37.1045H17.7386Z" fill="#41C7C7"/>
</g>
<defs>
<clipPath id="clip0_1371_183">
<rect width="50" height="50" fill="white" transform="translate(0.5 0.604492)"/>
</clipPath>
</defs>
</svg>
