<svg width="51" height="51" viewBox="0 0 51 51" fill="none" xmlns="http://www.w3.org/2000/svg">
<g clip-path="url(#clip0_1371_196)">
<rect x="2" y="2.10449" width="47" height="47" rx="23.5" stroke="#41C7C7" stroke-width="3"/>
<path d="M25.3409 37.4227C23.7803 37.4227 22.3864 37.1537 21.1591 36.6159C19.9394 36.078 18.9735 35.3318 18.2614 34.3772C17.5568 33.4151 17.178 32.3015 17.125 31.0363H20.6932C20.7386 31.7257 20.9697 32.3242 21.3864 32.8318C21.8106 33.3318 22.3636 33.7181 23.0455 33.9909C23.7273 34.2636 24.4848 34.3999 25.3182 34.3999C26.2348 34.3999 27.0455 34.2409 27.75 33.9227C28.4621 33.6045 29.0189 33.1613 29.4205 32.5931C29.822 32.0174 30.0227 31.3545 30.0227 30.6045C30.0227 29.8242 29.822 29.1386 29.4205 28.5477C29.0265 27.9492 28.447 27.4795 27.6818 27.1386C26.9242 26.7977 26.0076 26.6272 24.9318 26.6272H22.9659V23.7636H24.9318C25.7955 23.7636 26.553 23.6083 27.2045 23.2977C27.8636 22.9871 28.3788 22.5552 28.75 22.0022C29.1212 21.4416 29.3068 20.7863 29.3068 20.0363C29.3068 19.3166 29.1439 18.6916 28.8182 18.1613C28.5 17.6234 28.0455 17.203 27.4545 16.8999C26.8712 16.5969 26.1818 16.4454 25.3864 16.4454C24.6288 16.4454 23.9205 16.5856 23.2614 16.8659C22.6098 17.1386 22.0795 17.5325 21.6705 18.0477C21.2614 18.5552 21.0417 19.1651 21.0114 19.8772H17.6136C17.6515 18.6196 18.0227 17.5136 18.7273 16.559C19.4394 15.6045 20.3788 14.8583 21.5455 14.3204C22.7121 13.7825 24.0076 13.5136 25.4318 13.5136C26.9242 13.5136 28.2121 13.8052 29.2955 14.3886C30.3864 14.9643 31.2273 15.7333 31.8182 16.6954C32.4167 17.6575 32.7121 18.7106 32.7045 19.8545C32.7121 21.1575 32.3485 22.2636 31.6136 23.1727C30.8864 24.0818 29.9167 24.6916 28.7045 25.0022V25.184C30.25 25.4189 31.447 26.0325 32.2955 27.0249C33.1515 28.0174 33.5758 29.2484 33.5682 30.7181C33.5758 31.9984 33.2197 33.1462 32.5 34.1613C31.7879 35.1765 30.8144 35.9757 29.5795 36.559C28.3447 37.1348 26.9318 37.4227 25.3409 37.4227Z" fill="#41C7C7"/>
</g>
<defs>
<clipPath id="clip0_1371_196">
<rect width="50" height="50" fill="white" transform="translate(0.5 0.604492)"/>
</clipPath>
</defs>
</svg>
