<svg width="229" height="88" viewBox="0 0 229 88" fill="none" xmlns="http://www.w3.org/2000/svg">
<path d="M224.506 37.5352C224.334 37.5224 224.162 37.4988 223.991 37.4984C222.588 37.4954 221.186 37.4967 219.783 37.4967C219.612 37.4967 219.442 37.4967 219.203 37.4967C219.203 37.2725 219.203 37.0903 219.203 36.908C219.203 32.5 219.203 28.092 219.203 23.684C219.204 22.5673 219.023 21.4974 218.477 20.5006C217.729 19.1355 216.534 18.429 215.049 18.1855C214.226 18.0506 213.388 18.0474 212.553 18.1609C210.999 18.3724 209.808 19.0959 209.089 20.53C208.699 21.3074 208.53 22.1253 208.531 22.9886C208.533 27.617 208.532 32.2454 208.532 36.8738V37.4651H203.154V36.9023C203.154 32.5101 203.151 28.1178 203.156 23.7256C203.157 22.6089 203 21.5348 202.455 20.5366C201.685 19.1239 200.463 18.3771 198.907 18.1818C198.21 18.0943 197.49 18.0952 196.789 18.1538C195.649 18.2491 194.699 18.7848 193.883 19.5786C193.267 20.1774 192.862 20.9023 192.627 21.7107C192.511 22.1105 192.487 22.548 192.486 22.9686C192.474 27.5969 192.475 32.2253 192.473 36.8537C192.472 37.0409 192.473 37.228 192.473 37.4044C192.105 37.5168 187.682 37.5383 187.152 37.435V13.0623H192.448V14.1788C192.604 14.1305 192.706 14.1083 192.8 14.0682C194.623 13.2927 196.521 12.8921 198.503 12.9925C199.863 13.0613 201.187 13.3605 202.457 13.8467C203.573 14.2741 204.526 14.9737 205.399 15.7805C205.514 15.8865 205.603 16.0202 205.69 16.1248C205.794 16.0906 205.85 16.0892 205.878 16.0605C207.387 14.5289 209.223 13.6638 211.323 13.2403C213.695 12.7621 216.014 12.9252 218.248 13.7637C221.124 14.8424 223.011 16.9267 223.924 19.8591C224.176 20.6669 224.402 21.4906 224.435 22.3488C224.437 22.4051 224.481 22.4598 224.506 22.5153V37.5352Z" fill="black"/>
<path d="M91.834 4C91.8365 5.98311 91.8405 7.96623 91.8411 9.94934C91.8422 13.8214 91.8413 17.6935 91.8412 21.5655C91.8411 21.7194 91.8412 21.8733 91.8412 22.0989C91.9833 22.0025 92.0741 21.9543 92.149 21.8883C94.8068 19.5475 97.4637 17.2056 100.119 14.8623C100.721 14.3312 101.321 13.7984 101.915 13.258C102.074 13.1129 102.235 13.0269 102.458 13.0273C104.901 13.0326 107.343 13.0305 109.785 13.0321C109.858 13.0322 109.931 13.0511 110.102 13.0748C105.837 16.8437 101.635 20.5576 97.3846 24.3137C101.514 28.6799 105.633 33.0363 109.824 37.4674C109.57 37.4814 109.434 37.4955 109.298 37.4956C107.186 37.4969 105.075 37.4905 102.964 37.503C102.652 37.5049 102.433 37.4094 102.224 37.1849C100.633 35.4826 99.0355 33.7874 97.4365 32.0933C96.0968 30.674 94.7523 29.2592 93.3745 27.8049C93.0155 28.1172 92.684 28.45 92.3076 28.7205C91.9317 28.9907 91.8363 29.3167 91.8397 29.764C91.8578 32.1878 91.844 34.6117 91.8412 37.0357C91.841 37.1918 91.8412 37.348 91.8412 37.4945C91.4912 37.6101 87.2989 37.6456 86.5518 37.5409C86.5453 37.3705 86.5323 37.1884 86.5322 37.0064C86.5311 31.6076 86.5314 26.2087 86.5313 20.8099C86.5313 15.3482 86.5311 9.8864 86.5314 4.42463C86.5315 4.28311 86.5361 4.14153 86.5385 4H91.834Z" fill="black"/>
<path d="M82.0932 4C82.0872 5.19305 82.0794 6.38614 82.0756 7.57923C82.0728 8.49003 82.0755 9.40086 82.0743 10.3117C82.0742 10.4198 82.0646 10.5278 82.0597 10.63C81.7149 10.7252 77.4308 10.7544 76.7238 10.6616C76.7238 10.1592 76.7233 9.64548 76.7239 9.13171C76.7261 7.53006 76.7292 5.9284 76.7298 4.32675C76.7298 4.2178 76.7124 4.10895 76.7031 4H82.0932Z" fill="black"/>
<path d="M119.162 4C119.166 6.17028 119.17 8.34051 119.172 10.5108C119.172 10.5559 119.157 10.6011 119.143 10.6774H113.867C113.846 8.45215 113.859 6.22603 113.867 4H119.162Z" fill="black"/>
<path d="M22.9558 16.1502C23.5385 15.6833 24.031 15.2682 24.5449 14.8816C25.4237 14.2206 26.4099 13.7874 27.475 13.5095C28.8381 13.1538 30.2135 12.9022 31.6264 12.9878C34.1688 13.1419 36.5394 13.7933 38.4681 15.5611C39.8185 16.7989 40.7597 18.3021 41.244 20.085C41.6552 21.5987 41.838 23.1293 41.827 24.7005C41.7986 28.7613 41.8175 32.8225 41.8175 36.8835V37.4673H36.4396V36.8917C36.4395 32.5001 36.437 28.1085 36.4413 23.717C36.4424 22.6001 36.284 21.5264 35.7379 20.5292C34.9653 19.1184 33.7409 18.3908 32.1864 18.172C31.3894 18.0598 30.5867 18.0552 29.7849 18.1618C28.2659 18.3638 27.107 19.0791 26.3699 20.456C25.8848 21.3623 25.7611 22.332 25.7601 23.3303C25.7558 27.8478 25.7582 32.3653 25.7582 36.8828V37.4676H20.416V36.9032C20.416 32.5588 20.4213 28.2145 20.4124 23.8702C20.4101 22.7477 20.2802 21.6513 19.7513 20.6217C19.0736 19.3023 17.974 18.5604 16.5774 18.2422C15.7483 18.0533 14.8907 18.0344 14.0397 18.1399C12.9059 18.2806 11.9464 18.774 11.1313 19.5697C10.5177 20.1688 10.1144 20.8952 9.87117 21.7007C9.76005 22.0688 9.74383 22.4758 9.74308 22.8654C9.7339 27.5245 9.73575 32.1836 9.73471 36.8428C9.73466 37.0307 9.73466 37.2188 9.73466 37.397C9.38658 37.5169 4.93855 37.5444 4.37891 37.4338V13.0634H9.71711V14.1852C9.8586 14.1395 9.94773 14.1215 10.0271 14.0833C11.2044 13.5167 12.4661 13.2534 13.7456 13.0674C15.6428 12.7917 17.4784 13.1237 19.28 13.6936C20.5819 14.1054 21.6659 14.8842 22.6641 15.7915C22.779 15.8959 22.863 16.0345 22.9558 16.1502Z" fill="black"/>
<path d="M177.253 25.4816C177.252 23.6824 177.08 22.8662 176.474 21.5976C175.557 19.6782 174.022 18.5614 171.946 18.2001C171.03 18.0406 170.098 18.0731 169.167 18.1572C168.049 18.2583 167.044 18.6584 166.164 19.3112C164.769 20.3448 164.025 21.8038 163.7 23.4794C163.529 24.3614 163.514 25.2591 163.587 26.1566C163.738 28.0162 164.411 29.634 165.803 30.9137C166.637 31.6804 167.637 32.1402 168.741 32.3238C169.404 32.4341 170.089 32.4273 170.765 32.4395C171.939 32.4604 173.04 32.1789 174.064 31.5966C174.919 31.1108 175.602 30.4483 176.109 29.6137C176.922 28.2752 177.321 26.8223 177.253 25.4816ZM158.189 25.2712C158.265 22.9668 158.682 20.7342 159.836 18.7083C161.421 15.9277 163.788 14.1904 166.92 13.4203C169.685 12.7406 172.402 12.842 175.056 13.771C178.693 15.0439 180.971 17.6483 182.031 21.3259C182.491 22.9224 182.75 24.5528 182.591 26.2198C182.317 29.0895 181.455 31.7304 179.451 33.8924C178.209 35.2325 176.723 36.2217 174.974 36.7706C173.375 37.2723 171.738 37.612 170.051 37.525C167.14 37.3749 164.417 36.6627 162.171 34.6784C160.514 33.2142 159.375 31.4094 158.798 29.2712C158.445 27.9645 158.137 26.6455 158.189 25.2712Z" fill="black"/>
<path d="M44.168 12.9863H50.1638C52.8908 18.2432 55.631 23.5258 58.3866 28.838C61.0131 23.5502 63.6277 18.2867 66.2515 13.0044H72.221C72.1536 13.1574 72.1004 13.2939 72.035 13.4243C71.3577 14.7741 70.675 16.1212 70.0005 17.4723C68.6516 20.1744 67.313 22.8817 65.9591 25.5813C63.1449 31.1923 60.3243 36.8002 57.5046 42.4084C56.8758 43.6591 56.2377 44.9052 55.6096 46.1563C55.5109 46.3529 55.407 46.4776 55.153 46.4761C53.3409 46.4653 51.5288 46.4702 49.7167 46.4681C49.6577 46.468 49.5988 46.4469 49.4751 46.4231C51.4588 42.5111 53.4259 38.6321 55.4296 34.6807C51.698 27.4921 47.9471 20.2664 44.168 12.9863Z" fill="black"/>
<path d="M155.359 30.0709C155.277 30.5945 155.153 31.0401 154.924 31.461C153.567 33.9479 151.628 35.7932 148.928 36.727C146.312 37.6319 143.649 37.7751 140.929 37.1121C139.014 36.6454 137.305 35.8404 135.867 34.5071C134.284 33.0398 133.213 31.2545 132.664 29.1541C132.267 27.6368 131.993 26.1083 132.115 24.5374C132.351 21.4933 133.238 18.6989 135.419 16.4521C136.701 15.1313 138.224 14.1691 140.005 13.6561C141.601 13.1965 143.225 12.8808 144.895 12.9907C147.004 13.1294 149.042 13.5406 150.885 14.6575C152.598 15.6959 153.874 17.1488 154.908 18.835C155.011 19.0036 155.053 19.2096 155.148 19.4635C153.411 19.9297 151.719 20.3841 150.04 20.8347C149.683 20.4481 149.362 20.0832 149.023 19.7355C148.178 18.8702 147.133 18.3822 145.952 18.206C144.778 18.031 143.591 18.0094 142.426 18.2613C140.821 18.6085 139.517 19.4464 138.635 20.8536C137.876 22.0647 137.515 23.3892 137.462 24.8308C137.397 26.5805 137.72 28.21 138.647 29.6991C139.128 30.4699 139.761 31.1035 140.554 31.5614C141.541 32.131 142.6 32.4603 143.747 32.4375C144.47 32.4231 145.203 32.4363 145.913 32.3218C147.259 32.1048 148.425 31.4951 149.298 30.4252C149.712 29.9171 150.057 29.352 150.47 28.7598C152.059 29.186 153.707 29.6279 155.359 30.0709Z" fill="black"/>
<path d="M76.7328 12.9961H82.0779C82.0882 13.1488 82.1054 13.2849 82.1055 13.4211C82.1066 21.4794 82.1044 29.5377 82.1082 37.596C82.1088 38.9355 81.8569 40.2403 81.3706 41.4668C80.4405 43.8122 78.7369 45.3753 76.2861 46.0808C74.9903 46.4538 73.676 46.6757 72.3226 46.5057C69.9985 46.2137 67.9306 45.4142 66.4285 43.5074C66.3715 43.435 66.3188 43.3592 66.2383 43.2502C67.675 42.3342 69.0903 41.4318 70.4847 40.5428C70.8579 40.7452 71.1894 40.9556 71.5447 41.1123C72.7019 41.6224 73.858 41.6003 75.0092 41.0699C76.0835 40.575 76.5299 39.6631 76.6901 38.5654C76.7353 38.2558 76.7312 37.9375 76.7313 37.6232C76.7333 29.6121 76.7328 21.601 76.7328 13.5899V12.9961Z" fill="black"/>
<path d="M113.879 12.9971H119.207C119.207 21.1497 119.207 29.2825 119.206 37.4152C118.862 37.5202 114.354 37.5356 113.879 37.4287V12.9971Z" fill="black"/>
<path d="M129.45 30.8232H124.121V37.4649H129.45V30.8232Z" fill="black"/>
<path d="M224.639 40.4668H86.5234V47.9849H224.639V40.4668Z" fill="#FFF000"/>
<path d="M41.8131 40.5684H4.35938V47.8826H41.8131V40.5684Z" fill="#FFF000"/>
<path d="M6.38826 77.9854V60.0032H12.1921C13.4681 60.0032 14.5335 60.249 15.3881 60.7407C16.2486 61.2266 16.8954 61.888 17.3286 62.7251C17.7676 63.5622 17.9871 64.5046 17.9871 65.5524C17.9871 66.6002 17.7705 67.5455 17.3374 68.3884C16.9042 69.2255 16.2603 69.8899 15.4057 70.3816C14.5511 70.8674 13.4886 71.1103 12.2184 71.1103H7.65263V69.6352H12.1745C13.1169 69.6352 13.8984 69.4596 14.5189 69.1084C15.1393 68.7514 15.6018 68.2655 15.9062 67.6509C16.2164 67.0363 16.3715 66.3368 16.3715 65.5524C16.3715 64.768 16.2164 64.0685 15.9062 63.4539C15.6018 62.8392 15.1364 62.3563 14.5101 62.0051C13.8896 61.6539 13.1023 61.4783 12.1482 61.4783H8.03018V77.9854H6.38826ZM21.5168 77.9854V64.4987H23.0358V66.5709H23.1499C23.4192 65.8919 23.8875 65.3446 24.5548 64.929C25.228 64.5075 25.9889 64.2968 26.8377 64.2968C26.9665 64.2968 27.1099 64.2997 27.2679 64.3056C27.426 64.3114 27.5577 64.3173 27.663 64.3231V65.9124C27.5928 65.9007 27.4699 65.8831 27.2943 65.8597C27.1187 65.8363 26.9284 65.8246 26.7235 65.8246C26.0211 65.8246 25.3948 65.9738 24.8445 66.2724C24.3002 66.565 23.8699 66.9719 23.5538 67.4928C23.2377 68.0138 23.0797 68.6079 23.0797 69.2752V77.9854H21.5168ZM35.1615 78.2663C33.9966 78.2663 32.9664 77.9707 32.0708 77.3795C31.181 76.7883 30.4845 75.9717 29.9811 74.9298C29.4776 73.882 29.2259 72.6732 29.2259 71.3035C29.2259 69.9221 29.4776 68.7074 29.9811 67.6597C30.4845 66.606 31.181 65.7865 32.0708 65.2012C32.9664 64.61 33.9966 64.3143 35.1615 64.3143C36.3263 64.3143 37.3536 64.61 38.2434 65.2012C39.1331 65.7924 39.8297 66.6119 40.3331 67.6597C40.8423 68.7074 41.097 69.9221 41.097 71.3035C41.097 72.6732 40.8453 73.882 40.3419 74.9298C39.8385 75.9717 39.139 76.7883 38.2434 77.3795C37.3536 77.9707 36.3263 78.2663 35.1615 78.2663ZM35.1615 76.8351C36.098 76.8351 36.8912 76.5834 37.5409 76.08C38.1907 75.5766 38.6824 74.9064 39.016 74.0693C39.3555 73.2323 39.5253 72.3103 39.5253 71.3035C39.5253 70.2967 39.3555 69.3718 39.016 68.5289C38.6824 67.686 38.1907 67.0099 37.5409 66.5007C36.8912 65.9914 36.098 65.7368 35.1615 65.7368C34.2307 65.7368 33.4376 65.9914 32.782 66.5007C32.1322 67.0099 31.6376 67.686 31.2981 68.5289C30.9645 69.3718 30.7976 70.2967 30.7976 71.3035C30.7976 72.3103 30.9645 73.2323 31.2981 74.0693C31.6376 74.9064 32.1322 75.5766 32.782 76.08C33.4317 76.5834 34.2249 76.8351 35.1615 76.8351ZM49.6732 83.3238C48.7542 83.3238 47.9493 83.2038 47.2586 82.9638C46.5679 82.7297 45.9854 82.4077 45.5113 81.998C45.0372 81.5882 44.6684 81.1287 44.405 80.6195L45.6869 79.7765C45.8801 80.116 46.1376 80.4497 46.4596 80.7775C46.7874 81.1053 47.2118 81.3775 47.7327 81.5941C48.2595 81.8107 48.9064 81.9189 49.6732 81.9189C50.8673 81.9189 51.8302 81.6204 52.5619 81.0234C53.2995 80.4263 53.6682 79.4985 53.6682 78.24V75.202H53.5278C53.3463 75.6117 53.0858 76.0215 52.7463 76.4312C52.4068 76.8351 51.9619 77.1717 51.4117 77.441C50.8673 77.7102 50.1912 77.8449 49.3834 77.8449C48.3064 77.8449 47.3493 77.5785 46.5123 77.0459C45.6811 76.5132 45.0255 75.7522 44.5455 74.763C44.0713 73.7679 43.8343 72.5825 43.8343 71.2069C43.8343 69.843 44.0655 68.6431 44.5279 67.607C44.9962 66.5709 45.6489 65.7631 46.4859 65.1836C47.323 64.6041 48.2976 64.3143 49.4098 64.3143C50.2351 64.3143 50.92 64.4607 51.4644 64.7534C52.0088 65.0402 52.4448 65.3973 52.7726 65.8246C53.1063 66.2519 53.3668 66.6675 53.5541 67.0714H53.7121V64.4987H55.2399V78.3366C55.2399 79.478 54.997 80.4175 54.5112 81.1551C54.0253 81.8926 53.3639 82.437 52.5268 82.7882C51.6897 83.1453 50.7385 83.3238 49.6732 83.3238ZM49.5678 76.4137C50.4341 76.4137 51.1746 76.2059 51.7892 75.7903C52.4039 75.3688 52.8751 74.7659 53.2029 73.9815C53.5307 73.1971 53.6946 72.2635 53.6946 71.1806C53.6946 70.1269 53.5336 69.1933 53.2117 68.3796C52.8897 67.5601 52.4214 66.9163 51.8068 66.448C51.198 65.9738 50.4517 65.7368 49.5678 65.7368C48.6664 65.7368 47.9054 65.9797 47.2849 66.4655C46.6644 66.9514 46.1962 67.607 45.8801 68.4323C45.564 69.2518 45.4059 70.1679 45.4059 71.1806C45.4059 72.2108 45.5669 73.121 45.8889 73.9113C46.2108 74.6956 46.682 75.3103 47.3025 75.7551C47.923 76.1942 48.6781 76.4137 49.5678 76.4137ZM59.3777 77.9854V64.4987H60.8967V66.5709H61.0108C61.2801 65.8919 61.7484 65.3446 62.4157 64.929C63.0888 64.5075 63.8498 64.2968 64.6986 64.2968C64.8273 64.2968 64.9707 64.2997 65.1288 64.3056C65.2868 64.3114 65.4185 64.3173 65.5239 64.3231V65.9124C65.4537 65.9007 65.3307 65.8831 65.1551 65.8597C64.9795 65.8363 64.7893 65.8246 64.5844 65.8246C63.882 65.8246 63.2557 65.9738 62.7054 66.2724C62.161 66.565 61.7308 66.9719 61.4147 67.4928C61.0986 68.0138 60.9406 68.6079 60.9406 69.2752V77.9854H59.3777ZM71.9577 78.2927C71.1441 78.2927 70.4007 78.1346 69.7275 77.8185C69.0543 77.4966 68.5187 77.0341 68.1207 76.4312C67.7227 75.8225 67.5236 75.0849 67.5236 74.2186C67.5236 73.5513 67.6495 72.9893 67.9012 72.5328C68.1529 72.0762 68.51 71.7015 68.9724 71.4089C69.4348 71.1162 69.9821 70.885 70.6143 70.7152C71.2465 70.5455 71.9431 70.4138 72.704 70.3201C73.4591 70.2264 74.0972 70.1445 74.6182 70.0743C75.145 70.004 75.5459 69.8928 75.8211 69.7406C76.0962 69.5884 76.2337 69.3426 76.2337 69.0031V68.687C76.2337 67.768 75.9586 67.045 75.4084 66.5182C74.864 65.9855 74.0796 65.7192 73.0553 65.7192C72.0836 65.7192 71.2904 65.9329 70.6758 66.3602C70.067 66.7875 69.6397 67.2909 69.3938 67.8704L67.91 67.3348C68.2144 66.5972 68.6358 66.009 69.1743 65.5699C69.7129 65.1251 70.3158 64.806 70.9831 64.6129C71.6504 64.4139 72.3265 64.3143 73.0113 64.3143C73.5265 64.3143 74.0621 64.3817 74.6182 64.5163C75.1801 64.6509 75.7011 64.8851 76.1811 65.2187C76.661 65.5465 77.0503 66.006 77.3488 66.5972C77.6474 67.1826 77.7966 67.926 77.7966 68.8274V77.9854H76.2337V75.8517H76.1372C75.9498 76.2498 75.6718 76.6361 75.303 77.0107C74.9342 77.3854 74.4718 77.6927 73.9157 77.9327C73.3596 78.1727 72.707 78.2927 71.9577 78.2927ZM72.1684 76.8615C72.9996 76.8615 73.7196 76.6771 74.3284 76.3083C74.9372 75.9395 75.4055 75.4508 75.7333 74.842C76.0669 74.2274 76.2337 73.5513 76.2337 72.8137V70.8645C76.1167 70.9757 75.9206 71.0752 75.6455 71.163C75.3762 71.2508 75.063 71.3298 74.706 71.4001C74.3547 71.4645 74.0035 71.5201 73.6523 71.5669C73.3011 71.6137 72.985 71.6547 72.704 71.6898C71.9431 71.7835 71.2933 71.9298 70.7548 72.1289C70.2163 72.3279 69.8036 72.603 69.5168 72.9542C69.2299 73.2996 69.0865 73.7444 69.0865 74.2888C69.0865 75.1083 69.3792 75.7434 69.9646 76.1942C70.5499 76.639 71.2845 76.8615 72.1684 76.8615ZM81.9541 77.9854V64.4987H83.4731V66.5709H83.6136C83.8829 65.8743 84.3307 65.327 84.957 64.929C85.5892 64.5251 86.3472 64.3231 87.2311 64.3231C88.1618 64.3231 88.9257 64.5426 89.5228 64.9817C90.1257 65.4148 90.5764 66.0119 90.875 66.7728H90.9891C91.2935 66.0236 91.7881 65.4295 92.473 64.9904C93.1637 64.5456 94.0008 64.3231 94.9842 64.3231C96.2368 64.3231 97.2261 64.7182 97.9519 65.5085C98.6778 66.2929 99.0407 67.4402 99.0407 68.9504V77.9854H97.4778V68.9504C97.4778 67.885 97.2056 67.086 96.6612 66.5533C96.1168 66.0207 95.3998 65.7543 94.51 65.7543C93.4798 65.7543 92.6867 66.0704 92.1306 66.7026C91.5745 67.3348 91.2964 68.1367 91.2964 69.1084V77.9854H89.6984V68.8099C89.6984 67.8967 89.4438 67.1592 88.9345 66.5972C88.4253 66.0353 87.7082 65.7543 86.7833 65.7543C86.1629 65.7543 85.6038 65.9065 85.1063 66.2109C84.6146 66.5153 84.2253 66.9397 83.9385 67.4841C83.6575 68.0226 83.517 68.6431 83.517 69.3455V77.9854H81.9541ZM110.457 77.9854V60.0032H116.261C117.537 60.0032 118.603 60.249 119.457 60.7407C120.318 61.2266 120.964 61.888 121.398 62.7251C121.837 63.5622 122.056 64.5046 122.056 65.5524C122.056 66.6002 121.84 67.5455 121.406 68.3884C120.973 69.2255 120.329 69.8899 119.475 70.3816C118.62 70.8674 117.558 71.1103 116.287 71.1103H111.722V69.6352H116.244C117.186 69.6352 117.967 69.4596 118.588 69.1084C119.208 68.7514 119.671 68.2655 119.975 67.6509C120.285 67.0363 120.441 66.3368 120.441 65.5524C120.441 64.768 120.285 64.0685 119.975 63.4539C119.671 62.8392 119.206 62.3563 118.579 62.0051C117.959 61.6539 117.171 61.4783 116.217 61.4783H112.099V77.9854H110.457ZM129.353 78.2927C128.539 78.2927 127.796 78.1346 127.122 77.8185C126.449 77.4966 125.914 77.0341 125.516 76.4312C125.118 75.8225 124.919 75.0849 124.919 74.2186C124.919 73.5513 125.044 72.9893 125.296 72.5328C125.548 72.0762 125.905 71.7015 126.367 71.4089C126.83 71.1162 127.377 70.885 128.009 70.7152C128.641 70.5455 129.338 70.4138 130.099 70.3201C130.854 70.2264 131.492 70.1445 132.013 70.0743C132.54 70.004 132.941 69.8928 133.216 69.7406C133.491 69.5884 133.629 69.3426 133.629 69.0031V68.687C133.629 67.768 133.354 67.045 132.803 66.5182C132.259 65.9855 131.475 65.7192 130.45 65.7192C129.479 65.7192 128.685 65.9329 128.071 66.3602C127.462 66.7875 127.035 67.2909 126.789 67.8704L125.305 67.3348C125.609 66.5972 126.031 66.009 126.569 65.5699C127.108 65.1251 127.711 64.806 128.378 64.6129C129.045 64.4139 129.721 64.3143 130.406 64.3143C130.921 64.3143 131.457 64.3817 132.013 64.5163C132.575 64.6509 133.096 64.8851 133.576 65.2187C134.056 65.5465 134.445 66.006 134.744 66.5972C135.042 67.1826 135.192 67.926 135.192 68.8274V77.9854H133.629V75.8517H133.532C133.345 76.2498 133.067 76.6361 132.698 77.0107C132.329 77.3854 131.867 77.6927 131.311 77.9327C130.755 78.1727 130.102 78.2927 129.353 78.2927ZM129.563 76.8615C130.395 76.8615 131.115 76.6771 131.723 76.3083C132.332 75.9395 132.8 75.4508 133.128 74.842C133.462 74.2274 133.629 73.5513 133.629 72.8137V70.8645C133.512 70.9757 133.316 71.0752 133.04 71.163C132.771 71.2508 132.458 71.3298 132.101 71.4001C131.75 71.4645 131.398 71.5201 131.047 71.5669C130.696 71.6137 130.38 71.6547 130.099 71.6898C129.338 71.7835 128.688 71.9298 128.15 72.1289C127.611 72.3279 127.199 72.603 126.912 72.9542C126.625 73.2996 126.481 73.7444 126.481 74.2888C126.481 75.1083 126.774 75.7434 127.36 76.1942C127.945 76.639 128.679 76.8615 129.563 76.8615ZM139.349 77.9854V64.4987H140.868V66.5709H140.982C141.251 65.8919 141.72 65.3446 142.387 64.929C143.06 64.5075 143.821 64.2968 144.67 64.2968C144.799 64.2968 144.942 64.2997 145.1 64.3056C145.258 64.3114 145.39 64.3173 145.495 64.3231V65.9124C145.425 65.9007 145.302 65.8831 145.127 65.8597C144.951 65.8363 144.761 65.8246 144.556 65.8246C143.853 65.8246 143.227 65.9738 142.677 66.2724C142.132 66.565 141.702 66.9719 141.386 67.4928C141.07 68.0138 140.912 68.6079 140.912 69.2752V77.9854H139.349ZM154.32 64.4987V65.8597H147.884V64.4987H154.32ZM149.894 61.2676H151.466V74.4644C151.466 75.0264 151.563 75.4683 151.756 75.7903C151.949 76.1064 152.201 76.3317 152.511 76.4664C152.821 76.5951 153.152 76.6595 153.503 76.6595C153.708 76.6595 153.883 76.6478 154.03 76.6244C154.176 76.5951 154.305 76.5659 154.416 76.5366L154.75 77.9502C154.598 78.0088 154.41 78.0614 154.188 78.1083C153.965 78.161 153.69 78.1873 153.363 78.1873C152.789 78.1873 152.236 78.0614 151.703 77.8097C151.176 77.558 150.743 77.1834 150.404 76.6859C150.064 76.1883 149.894 75.5708 149.894 74.8332V61.2676ZM159.432 69.5562V77.9854H157.869V64.4987H159.388V66.6148H159.529C159.845 65.9241 160.336 65.3709 161.004 64.9553C161.677 64.5339 162.508 64.3231 163.497 64.3231C164.405 64.3231 165.201 64.5134 165.885 64.8939C166.576 65.2685 167.112 65.8216 167.492 66.5533C167.879 67.285 168.072 68.1836 168.072 69.2489V77.9854H166.509V69.3455C166.509 68.2392 166.199 67.3641 165.578 66.7202C164.964 66.0763 164.138 65.7543 163.102 65.7543C162.394 65.7543 161.765 65.9065 161.214 66.2109C160.664 66.5153 160.228 66.9543 159.906 67.528C159.59 68.0958 159.432 68.7718 159.432 69.5562ZM177.64 78.2663C176.382 78.2663 175.293 77.9736 174.374 77.3883C173.455 76.7971 172.744 75.9805 172.24 74.9386C171.743 73.8908 171.494 72.6849 171.494 71.3211C171.494 69.963 171.743 68.7572 172.24 67.7036C172.744 66.6441 173.437 65.8158 174.321 65.2187C175.211 64.6158 176.238 64.3143 177.403 64.3143C178.135 64.3143 178.84 64.449 179.519 64.7182C180.198 64.9817 180.807 65.3885 181.345 65.9387C181.89 66.4831 182.32 67.1709 182.636 68.0021C182.952 68.8274 183.11 69.805 183.11 70.9347V71.7074H172.574V70.3289H181.512C181.512 69.4626 181.337 68.684 180.985 67.9933C180.64 67.2967 180.157 66.7465 179.537 66.3426C178.922 65.9387 178.211 65.7368 177.403 65.7368C176.548 65.7368 175.796 65.9651 175.147 66.4216C174.497 66.8782 173.988 67.4811 173.619 68.2304C173.256 68.9796 173.071 69.7991 173.066 70.6889V71.5142C173.066 72.5854 173.25 73.522 173.619 74.3239C173.993 75.12 174.523 75.7376 175.208 76.1766C175.893 76.6156 176.704 76.8351 177.64 76.8351C178.278 76.8351 178.837 76.7356 179.317 76.5366C179.803 76.3376 180.21 76.0712 180.538 75.7376C180.871 75.3981 181.123 75.0264 181.293 74.6225L182.777 75.1054C182.572 75.6732 182.235 76.1971 181.767 76.6771C181.305 77.1571 180.725 77.5434 180.028 77.8361C179.338 78.1229 178.542 78.2663 177.64 78.2663ZM186.554 77.9854V64.4987H188.073V66.5709H188.188C188.457 65.8919 188.925 65.3446 189.592 64.929C190.266 64.5075 191.027 64.2968 191.875 64.2968C192.004 64.2968 192.148 64.2997 192.306 64.3056C192.464 64.3114 192.595 64.3173 192.701 64.3231V65.9124C192.63 65.9007 192.508 65.8831 192.332 65.8597C192.156 65.8363 191.966 65.8246 191.761 65.8246C191.059 65.8246 190.432 65.9738 189.882 66.2724C189.338 66.565 188.908 66.9719 188.591 67.4928C188.275 68.0138 188.117 68.6079 188.117 69.2752V77.9854H186.554ZM204.429 67.4577L202.998 67.8616C202.857 67.4577 202.658 67.0919 202.401 66.7641C202.143 66.4363 201.807 66.1758 201.391 65.9826C200.981 65.7894 200.472 65.6929 199.863 65.6929C198.95 65.6929 198.201 65.9094 197.615 66.3426C197.03 66.7758 196.737 67.3348 196.737 68.0197C196.737 68.5992 196.936 69.0704 197.335 69.4333C197.738 69.7904 198.359 70.0743 199.196 70.285L201.233 70.7855C202.363 71.0606 203.209 71.4967 203.771 72.0937C204.338 72.6908 204.622 73.4401 204.622 74.3415C204.622 75.1025 204.411 75.7786 203.99 76.3698C203.569 76.961 202.98 77.4263 202.225 77.7658C201.476 78.0995 200.607 78.2663 199.617 78.2663C198.3 78.2663 197.215 77.9707 196.36 77.3795C195.505 76.7824 194.958 75.922 194.718 74.7981L196.219 74.4293C196.413 75.2312 196.79 75.8371 197.352 76.2468C197.92 76.6566 198.666 76.8615 199.591 76.8615C200.627 76.8615 201.455 76.6303 202.076 76.1678C202.696 75.6995 203.007 75.1142 203.007 74.4117C203.007 73.8674 202.825 73.4108 202.462 73.042C202.099 72.6674 201.549 72.3923 200.812 72.2167L198.608 71.6898C197.437 71.4089 196.571 70.964 196.009 70.3552C195.447 69.7465 195.166 68.9913 195.166 68.0899C195.166 67.3465 195.368 66.6938 195.772 66.1319C196.176 65.5641 196.732 65.1192 197.44 64.7973C198.148 64.4753 198.956 64.3143 199.863 64.3143C201.098 64.3143 202.085 64.5953 202.822 65.1573C203.566 65.7133 204.101 66.4802 204.429 67.4577ZM209.467 72.8927L209.449 70.8469H209.8L216.122 64.4987H218.098L211.855 70.7503L211.715 70.7767L209.467 72.8927ZM208.044 77.9854V60.0032H209.607V77.9854H208.044ZM216.447 77.9854L210.968 71.0577L212.092 69.9777L218.449 77.9854H216.447ZM221.052 77.9854V64.4987H222.624V77.9854H221.052ZM221.851 62.1807C221.53 62.1807 221.254 62.0724 221.026 61.8558C220.798 61.6334 220.684 61.3671 220.684 61.0568C220.684 60.7466 220.798 60.4832 221.026 60.2666C221.254 60.0442 221.53 59.933 221.851 59.933C222.173 59.933 222.449 60.0442 222.677 60.2666C222.905 60.4832 223.019 60.7466 223.019 61.0568C223.019 61.3671 222.905 61.6334 222.677 61.8558C222.449 62.0724 222.173 62.1807 221.851 62.1807Z" fill="black"/>
</svg>
