<svg width="100" height="100" viewBox="0 0 100 100" fill="none" xmlns="http://www.w3.org/2000/svg">
<path d="M12.6483 14.3437L12.6501 14.3568L12.6525 14.3698L16.0456 32.223L21.9619 70.4934C22.5219 75.0103 26.7594 78.5338 31.5966 78.5338H88.1736C89.8895 78.5338 91.2848 77.307 91.2848 75.6309C91.2848 73.9548 89.8895 72.728 88.1736 72.728H31.5966C29.9236 72.728 28.3258 71.3066 28.1775 69.7367L28.1761 69.7221L28.1738 69.7076L22.255 31.341L22.2537 31.3324L22.2521 31.3239L18.8595 13.4731C18.2058 8.9631 13.8854 5.44629 9.05281 5.44629H4.61369C2.89779 5.44629 1.50244 6.67309 1.50244 8.34921C1.50244 10.0253 2.89779 11.2521 4.61369 11.2521H9.05281C10.8083 11.2521 12.4213 12.6728 12.6483 14.3437ZM82.9511 56.7085H82.9341L82.9173 56.7097L35.6695 59.9125C34.9141 59.9185 34.0951 60.3046 33.5761 60.8778C33.0698 61.4369 32.7352 62.2126 32.8397 63.026C32.9557 64.5999 34.3392 65.7182 35.9486 65.7182H35.9538C35.9992 65.7183 36.0808 65.7183 36.1806 65.7C36.2566 65.686 36.3335 65.6634 36.415 65.6313L83.3165 62.4342C88.0446 62.4259 92.367 59.0011 92.9327 54.5633L98.4134 25.7436L98.4164 25.7278L98.4184 25.7118C98.7835 22.7719 97.8736 19.8159 95.9344 17.7765L95.9274 17.7691L95.92 17.7619C94.1785 16.0751 91.8797 15.058 89.3051 15.058H28.9853C27.2694 15.058 25.8741 16.2848 25.8741 17.9609C25.8741 19.637 27.2694 20.8638 28.9853 20.8638H89.131C89.9641 20.8638 90.6123 21.1368 91.1188 21.6695L91.1187 21.6696L91.1254 21.6764C91.87 22.43 92.271 23.7044 92.1185 24.9314L86.6379 53.751L86.6357 53.7626L86.634 53.7743C86.4117 55.3424 84.8199 56.7085 82.9511 56.7085ZM74.7044 88.4464C74.7044 91.8847 77.6665 94.5533 81.2973 94.5533C84.8362 94.5533 87.8902 91.8891 87.8902 88.4464C87.8902 85.0082 84.9281 82.3396 81.2973 82.3396C77.6665 82.3396 74.7044 85.0082 74.7044 88.4464ZM25.9611 88.4464C25.9611 91.8847 28.9232 94.5533 32.554 94.5533C36.093 94.5533 39.1469 91.8891 39.1469 88.4464C39.1469 85.0082 36.1848 82.3396 32.554 82.3396C28.9232 82.3396 25.9611 85.0082 25.9611 88.4464Z" fill="white" stroke="white"/>
</svg>
