<svg width="100" height="100" viewBox="0 0 100 100" fill="none" xmlns="http://www.w3.org/2000/svg">
<path d="M41.7933 13.2248C42.8325 13.2248 43.8292 13.6376 44.5641 14.3725C45.299 15.1074 45.7118 16.1041 45.7118 17.1433V49.7981C45.7118 50.4909 45.9871 51.1554 46.477 51.6453C46.9669 52.1352 47.6314 52.4105 48.3242 52.4105C49.0171 52.4105 49.6815 52.1352 50.1714 51.6453C50.6614 51.1554 50.9366 50.4909 50.9366 49.7981V36.5638L51.3859 36.5429C53.0422 36.4802 54.7141 36.5011 55.6493 36.6839C56.3494 36.825 57.1854 37.1855 57.99 37.6348C58.3923 37.8543 58.7737 38.4029 58.7737 39.2754V49.7981C58.7737 50.4909 59.049 51.1554 59.5389 51.6453C60.0288 52.1352 60.6933 52.4105 61.3861 52.4105C62.079 52.4105 62.7434 52.1352 63.2333 51.6453C63.7233 51.1554 63.9985 50.4909 63.9985 49.7981V41.6213L64.5523 41.5691C66.2033 41.4437 67.6036 41.5168 68.2514 41.7781C68.868 42.0184 69.8189 42.8596 70.7907 44.0247C71.2139 44.5263 71.5744 45.0174 71.8356 45.3779V52.4105C71.8356 53.1033 72.1109 53.7678 72.6008 54.2577C73.0907 54.7476 73.7552 55.0228 74.448 55.0228C75.1409 55.0228 75.8053 54.7476 76.2952 54.2577C76.7852 53.7678 77.0604 53.1033 77.0604 52.4105V47.1857H78.8473C79.5774 47.1857 80.2995 47.3387 80.9669 47.635C81.6343 47.9312 82.2323 48.364 82.7221 48.9056C83.2119 49.4471 83.5828 50.0853 83.8108 50.7789C84.0388 51.4726 84.1189 52.2064 84.0459 52.9329L82.63 67.1182C82.4471 68.9411 81.8828 70.7052 80.9737 72.2959L73.6852 85.0548C73.4568 85.4546 73.1268 85.7869 72.7286 86.0182C72.3304 86.2494 71.8781 86.3712 71.4176 86.3714H38.4912C38.0065 86.3714 37.5313 86.2365 37.1188 85.9818C36.7064 85.7271 36.3729 85.3627 36.1557 84.9294L29.7188 72.0503L16.5942 50.1847C16.257 49.6194 16.1379 48.9504 16.2592 48.3034C16.3804 47.6564 16.7338 47.0759 17.2528 46.6711C17.7719 46.2662 18.4209 46.0649 19.078 46.1048C19.735 46.1447 20.3549 46.4232 20.8211 46.8879L33.4127 59.4796C33.7778 59.8455 34.2432 60.095 34.7501 60.1963C35.257 60.2977 35.7825 60.2464 36.2602 60.0489C36.738 59.8515 37.1463 59.5167 37.4337 59.0871C37.7211 58.6574 37.8746 58.1521 37.8747 57.6352V17.1433C37.8747 16.1041 38.2875 15.1074 39.0224 14.3725C39.7573 13.6376 40.754 13.2248 41.7933 13.2248ZM50.9366 31.3338V17.1433C50.9366 14.7184 49.9733 12.3927 48.2586 10.678C46.5439 8.96331 44.2182 8 41.7933 8C39.3683 8 37.0427 8.96331 35.328 10.678C33.6132 12.3927 32.6499 14.7184 32.6499 17.1433V51.3289L24.515 43.194C23.1463 41.8328 21.3278 41.0179 19.401 40.9022C17.4741 40.7865 15.5713 41.378 14.0495 42.5657C12.5278 43.7533 11.4918 45.4555 11.1359 47.3527C10.78 49.2499 11.1287 51.2118 12.1166 52.8702L25.1315 74.5687L31.4796 87.2648C32.1308 88.5667 33.1317 89.6616 34.3701 90.4266C35.6085 91.1916 37.0355 91.5966 38.4912 91.5962H71.4176C72.7991 91.5957 74.1558 91.2301 75.3504 90.5365C76.545 89.8428 77.5351 88.8457 78.2203 87.6462L85.5088 74.8926C86.783 72.6632 87.5735 70.1905 87.8286 67.6354L89.2445 53.4502C89.3898 51.9975 89.229 50.5306 88.7727 49.1438C88.3163 47.7571 87.5744 46.4814 86.5948 45.3989C85.6152 44.3164 84.4197 43.4512 83.0853 42.8591C81.7508 42.267 80.3072 41.961 78.8473 41.9609H75.8117C75.4855 41.5187 75.1457 41.0865 74.7928 40.6652C73.7949 39.4687 72.1282 37.6975 70.195 36.9243C68.2932 36.1615 65.7749 36.2346 64.1448 36.36L63.4551 36.4227C62.8989 34.9988 61.8644 33.8129 60.5292 33.0684C59.3272 32.3752 58.0272 31.8678 56.6734 31.5637C55.0537 31.2397 52.8123 31.2606 51.1874 31.3233L50.9366 31.3338Z" fill="#F65063" stroke="#F65063"/>
</svg>
