<svg width="100" height="100" viewBox="0 0 100 100" fill="none" xmlns="http://www.w3.org/2000/svg">
<path d="M90.625 28.25V72C90.625 73.6576 89.9665 75.2473 88.7944 76.4194C87.6223 77.5915 86.0326 78.25 84.375 78.25H15.625C13.9674 78.25 12.3777 77.5915 11.2056 76.4194C10.0335 75.2473 9.375 73.6576 9.375 72V28.25M90.625 28.25C90.625 26.5924 89.9665 25.0027 88.7944 23.8306C87.6223 22.6585 86.0326 22 84.375 22H15.625C13.9674 22 12.3777 22.6585 11.2056 23.8306C10.0335 25.0027 9.375 26.5924 9.375 28.25M90.625 28.25L53.5563 53.9125C52.5113 54.6355 51.2707 55.0229 50 55.0229C48.7293 55.0229 47.4887 54.6355 46.4438 53.9125L9.375 28.25" stroke="#F65063" stroke-width="7" stroke-linecap="round" stroke-linejoin="round"/>
</svg>
