<svg width="100" height="100" viewBox="0 0 100 100" fill="none" xmlns="http://www.w3.org/2000/svg">
<path d="M39.8438 43.1641H86.7188C87.1484 43.1641 87.5 42.8125 87.5 42.3828V36.9141C87.5 36.4844 87.1484 36.1328 86.7188 36.1328H39.8438C39.4141 36.1328 39.0625 36.4844 39.0625 36.9141V42.3828C39.0625 42.8125 39.4141 43.1641 39.8438 43.1641ZM39.0625 63.0859C39.0625 63.5156 39.4141 63.8672 39.8438 63.8672H86.7188C87.1484 63.8672 87.5 63.5156 87.5 63.0859V57.6172C87.5 57.1875 87.1484 56.8359 86.7188 56.8359H39.8438C39.4141 56.8359 39.0625 57.1875 39.0625 57.6172V63.0859ZM88.2812 15.625H11.7188C11.2891 15.625 10.9375 15.9766 10.9375 16.4062V21.875C10.9375 22.3047 11.2891 22.6562 11.7188 22.6562H88.2812C88.7109 22.6562 89.0625 22.3047 89.0625 21.875V16.4062C89.0625 15.9766 88.7109 15.625 88.2812 15.625ZM88.2812 77.3438H11.7188C11.2891 77.3438 10.9375 77.6953 10.9375 78.125V83.5938C10.9375 84.0234 11.2891 84.375 11.7188 84.375H88.2812C88.7109 84.375 89.0625 84.0234 89.0625 83.5938V78.125C89.0625 77.6953 88.7109 77.3438 88.2812 77.3438ZM11.2695 50.6738L26.5332 62.6953C27.0996 63.1445 27.9395 62.7441 27.9395 62.0215V37.9785C27.9395 37.2559 27.1094 36.8555 26.5332 37.3047L11.2695 49.3262C11.1669 49.406 11.0838 49.5082 11.0267 49.6249C10.9696 49.7417 10.9399 49.87 10.9399 50C10.9399 50.13 10.9696 50.2583 11.0267 50.3751C11.0838 50.4918 11.1669 50.594 11.2695 50.6738Z" fill="white"/>
</svg>
