<svg width="100" height="100" viewBox="0 0 100 100" fill="none" xmlns="http://www.w3.org/2000/svg">
<path d="M54.688 68.9785H46.294C40.3558 68.9785 35.489 63.9779 35.489 57.8164C35.489 55.9858 37.0071 54.4678 38.8377 54.4678C40.6683 54.4678 42.1863 55.9858 42.1863 57.8164C42.1863 60.2721 44.0169 62.2812 46.294 62.2812H54.688C56.4293 62.2812 57.8134 60.7185 57.8134 58.7987C57.8134 56.3877 57.1437 56.0305 55.6256 55.4947L42.1863 50.8066C39.3288 49.8244 35.489 47.7259 35.489 41.1626C35.489 35.5817 39.9093 30.9829 45.3118 30.9829H53.7057C59.644 30.9829 64.5107 35.9835 64.5107 42.1449C64.5107 43.9754 62.9927 45.4935 61.1621 45.4935C59.3315 45.4935 57.8134 43.9754 57.8134 42.1449C57.8134 39.6893 55.9828 37.6802 53.7057 37.6802H45.3118C43.5704 37.6802 42.1863 39.2428 42.1863 41.1626C42.1863 43.5736 42.8561 43.9308 44.3741 44.4666L57.8134 49.1546C60.6709 50.1369 64.5107 52.2354 64.5107 58.7987C64.5107 64.4244 60.0905 68.9785 54.688 68.9785Z" fill="white"/>
<path d="M50 73.4425C48.1694 73.4425 46.6514 71.9245 46.6514 70.0939V29.9106C46.6514 28.08 48.1694 26.562 50 26.562C51.8306 26.562 53.3487 28.08 53.3487 29.9106V70.0939C53.3487 71.9245 51.8306 73.4425 50 73.4425Z" fill="white"/>
<path d="M50 97.9976C23.5232 97.9976 2.00244 76.4788 2.00244 50.0044C2.00244 23.53 23.5232 2.01123 50 2.01123C51.8306 2.01123 53.3487 3.52915 53.3487 5.35959C53.3487 7.19003 51.8306 8.70796 50 8.70796C27.2291 8.70796 8.69978 27.2356 8.69978 50.0044C8.69978 72.7733 27.2291 91.3009 50 91.3009C72.771 91.3009 91.3002 72.7733 91.3002 50.0044C91.3002 48.174 92.8183 46.6561 94.6489 46.6561C96.4795 46.6561 97.9976 48.174 97.9976 50.0044C97.9976 76.4788 76.4768 97.9976 50 97.9976Z" fill="white"/>
<path d="M76.6545 2.00249L94.5511 2.00249C96.3817 2.00249 97.9067 3.52053 97.9067 5.35112L97.9067 23.2105C97.9067 25.041 96.3817 26.5591 94.5511 26.5591C92.7205 26.5591 91.1955 25.041 91.1955 23.2105L91.1955 8.69974L76.6546 8.69974C74.824 8.69974 73.299 7.1817 73.299 5.35112C73.2989 3.52054 74.824 2.00249 76.6545 2.00249Z" fill="white"/>
<path d="M72.2396 31.0147C71.3912 31.0147 70.5429 30.7022 69.8731 30.0324C68.5781 28.7376 68.5779 26.5945 69.8726 25.2997L92.1948 2.9755C93.4895 1.68069 95.6326 1.68069 96.9276 2.9755C98.2225 4.2703 98.2227 6.41343 96.928 7.70823L74.6058 30.0324C73.9362 30.7022 73.0879 31.0147 72.2396 31.0147Z" fill="white"/>
</svg>
