<svg width="100" height="100" viewBox="0 0 100 100" fill="none" xmlns="http://www.w3.org/2000/svg">
<path d="M54.6878 68.9775H46.2938C40.3555 68.9775 35.4888 63.9768 35.4888 57.8153C35.4888 55.9847 37.0068 54.4666 38.8374 54.4666C40.668 54.4666 42.1861 55.9847 42.1861 57.8153C42.1861 60.271 44.0167 62.2802 46.2938 62.2802H54.6878C56.4291 62.2802 57.8132 60.7175 57.8132 58.7976C57.8132 56.3865 57.1435 56.0293 55.6254 55.4936L42.1861 50.8054C39.3286 49.8231 35.4888 47.7246 35.4888 41.1613C35.4888 35.5803 39.9091 30.9814 45.3115 30.9814H53.7055C59.6438 30.9814 64.5106 35.9821 64.5106 42.1435C64.5106 43.9741 62.9925 45.4922 61.1619 45.4922C59.3313 45.4922 57.8132 43.9741 57.8132 42.1435C57.8132 39.688 55.9826 37.6788 53.7055 37.6788H45.3115C43.5702 37.6788 42.1861 39.2415 42.1861 41.1613C42.1861 43.5723 42.8558 43.9295 44.3739 44.4653L57.8132 49.1534C60.6708 50.1357 64.5106 52.2342 64.5106 58.7976C64.5106 64.4233 60.0903 68.9775 54.6878 68.9775Z" fill="white"/>
<path d="M50 73.4404C48.1694 73.4404 46.6514 71.9224 46.6514 70.0918V29.9077C46.6514 28.0771 48.1694 26.5591 50 26.5591C51.8306 26.5591 53.3487 28.0771 53.3487 29.9077V70.0918C53.3487 71.9224 51.8306 73.4404 50 73.4404Z" fill="white"/>
<path d="M50 97.9976C23.5232 97.9976 2.00244 76.4768 2.00244 50C2.00244 23.5232 23.5232 2.00244 50 2.00244C51.8306 2.00244 53.3487 3.5205 53.3487 5.35111C53.3487 7.18171 51.8306 8.69978 50 8.69978C27.2291 8.69978 8.69978 27.2291 8.69978 50C8.69978 72.771 27.2291 91.3002 50 91.3002C72.771 91.3002 91.3002 72.771 91.3002 50C91.3002 48.1694 92.8183 46.6513 94.6489 46.6513C96.4795 46.6513 97.9976 48.1694 97.9976 50C97.9976 76.4768 76.4768 97.9976 50 97.9976Z" fill="white"/>
<path d="M90.1838 31.0232H72.3243C70.4936 31.0232 68.9756 29.5051 68.9756 27.6745V9.81498C68.9756 7.98437 70.4936 6.46631 72.3243 6.46631C74.1549 6.46631 75.6729 7.98437 75.6729 9.81498V24.3259H90.1838C92.0144 24.3259 93.5325 25.8439 93.5325 27.6745C93.5325 29.5051 92.0144 31.0232 90.1838 31.0232Z" fill="white"/>
<path d="M72.3219 31.0248C71.4736 31.0248 70.6252 30.7122 69.9555 30.0425C68.6607 28.7477 68.6607 26.6045 69.9555 25.3097L92.2799 2.98527C93.5748 1.69046 95.7179 1.69046 97.0127 2.98527C98.3075 4.28009 98.3075 6.42324 97.0127 7.71806L74.6883 30.0425C74.0185 30.7122 73.1702 31.0248 72.3219 31.0248Z" fill="white"/>
</svg>
