<svg width="100" height="100" viewBox="0 0 100 100" fill="none" xmlns="http://www.w3.org/2000/svg">
<path d="M54.6922 68.977H46.2978C40.3592 68.977 35.4922 63.9764 35.4922 57.8148C35.4922 55.9842 37.0103 54.4661 38.841 54.4661C40.6717 54.4661 42.1899 55.9842 42.1899 57.8148C42.1899 60.2705 44.0206 62.2797 46.2978 62.2797H54.6922C56.4336 62.2797 57.8178 60.717 57.8178 58.7971C57.8178 56.386 57.148 56.0289 55.6299 55.4931L42.1899 50.8049C39.3322 49.8227 35.4922 47.7242 35.4922 41.1608C35.4922 35.5798 39.9127 30.981 45.3154 30.981H53.7099C59.6485 30.981 64.5154 35.9816 64.5154 42.143C64.5154 43.9737 62.9973 45.4917 61.1666 45.4917C59.3359 45.4917 57.8178 43.9737 57.8178 42.143C57.8178 39.6875 55.9871 37.6783 53.7099 37.6783H45.3154C43.574 37.6783 42.1899 39.241 42.1899 41.1608C42.1899 43.5718 42.8596 43.929 44.3778 44.4648L57.8178 49.1529C60.6754 50.1352 64.5154 52.2337 64.5154 58.7971C64.5154 64.4228 60.095 68.977 54.6922 68.977Z" fill="#292D32"/>
<path d="M49.9971 73.4404C48.1665 73.4404 46.6484 71.9224 46.6484 70.0918V29.9077C46.6484 28.0771 48.1665 26.5591 49.9971 26.5591C51.8277 26.5591 53.3458 28.0771 53.3458 29.9077V70.0918C53.3458 71.9224 51.8277 73.4404 49.9971 73.4404Z" fill="#292D32"/>
<path d="M50 97.9976C23.5219 97.9976 2 76.4768 2 50C2 23.5232 23.5219 2.00244 50 2.00244C51.8307 2.00244 53.3488 3.5205 53.3488 5.35111C53.3488 7.18171 51.8307 8.69978 50 8.69978C27.2279 8.69978 8.69767 27.2291 8.69767 50C8.69767 72.771 27.2279 91.3002 50 91.3002C72.7721 91.3002 91.3023 72.771 91.3023 50C91.3023 48.1694 92.8205 46.6513 94.6512 46.6513C96.4819 46.6513 98 48.1694 98 50C98 76.4768 76.4781 97.9976 50 97.9976Z" fill="#292D32"/>
<path d="M90.1937 31.0232H72.3332C70.5025 31.0232 68.9844 29.5051 68.9844 27.6745V9.81498C68.9844 7.98437 70.5025 6.46631 72.3332 6.46631C74.1639 6.46631 75.682 7.98437 75.682 9.81498V24.3259H90.1937C92.0244 24.3259 93.5425 25.8439 93.5425 27.6745C93.5425 29.5051 92.0244 31.0232 90.1937 31.0232Z" fill="#292D32"/>
<path d="M72.3221 31.0248C71.4737 31.0248 70.6253 30.7122 69.9555 30.0425C68.6607 28.7477 68.6607 26.6045 69.9555 25.3097L92.2811 2.98527C93.576 1.69046 95.7192 1.69046 97.0141 2.98527C98.309 4.28009 98.309 6.42324 97.0141 7.71806L74.6886 30.0425C74.0188 30.7122 73.1704 31.0248 72.3221 31.0248Z" fill="#292D32"/>
</svg>
