<svg width="100" height="100" viewBox="0 0 100 100" fill="none" xmlns="http://www.w3.org/2000/svg">
<path d="M54.6922 68.9785H46.2978C40.3592 68.9785 35.4922 63.9779 35.4922 57.8164C35.4922 55.9858 37.0103 54.4678 38.841 54.4678C40.6717 54.4678 42.1899 55.9858 42.1899 57.8164C42.1899 60.2721 44.0205 62.2812 46.2978 62.2812H54.6922C56.4335 62.2812 57.8177 60.7185 57.8177 58.7987C57.8177 56.3877 57.148 56.0305 55.6298 55.4947L42.1899 50.8066C39.3322 49.8244 35.4922 47.7259 35.4922 41.1626C35.4922 35.5817 39.9127 30.9829 45.3154 30.9829H53.7098C59.6484 30.9829 64.5154 35.9835 64.5154 42.1449C64.5154 43.9754 62.9973 45.4935 61.1666 45.4935C59.3359 45.4935 57.8177 43.9754 57.8177 42.1449C57.8177 39.6893 55.987 37.6802 53.7098 37.6802H45.3154C43.574 37.6802 42.1899 39.2428 42.1899 41.1626C42.1899 43.5736 42.8596 43.9308 44.3778 44.4666L57.8177 49.1546C60.6754 50.1369 64.5154 52.2354 64.5154 58.7987C64.5154 64.4244 60.0949 68.9785 54.6922 68.9785Z" fill="#26E0AA"/>
<path d="M49.9971 73.4425C48.1665 73.4425 46.6484 71.9245 46.6484 70.0939V29.9106C46.6484 28.08 48.1665 26.562 49.9971 26.562C51.8277 26.562 53.3457 28.08 53.3457 29.9106V70.0939C53.3457 71.9245 51.8277 73.4425 49.9971 73.4425Z" fill="#26E0AA"/>
<path d="M50 97.9976C23.5219 97.9976 2 76.4788 2 50.0044C2 23.53 23.5219 2.01123 50 2.01123C51.8307 2.01123 53.3488 3.52915 53.3488 5.35959C53.3488 7.19003 51.8307 8.70796 50 8.70796C27.2279 8.70796 8.69767 27.2356 8.69767 50.0044C8.69767 72.7733 27.2279 91.3009 50 91.3009C72.7721 91.3009 91.3023 72.7733 91.3023 50.0044C91.3023 48.174 92.8205 46.6561 94.6512 46.6561C96.4819 46.6561 98 48.174 98 50.0044C98 76.4788 76.4781 97.9976 50 97.9976Z" fill="#26E0AA"/>
<path d="M76.653 2.00249L94.5504 2.00249C96.3811 2.00249 97.9062 3.52053 97.9062 5.35112L97.9062 23.2105C97.9062 25.041 96.3812 26.5591 94.5505 26.5591C92.7198 26.5591 91.1947 25.041 91.1947 23.2105L91.1947 8.69974L76.653 8.69974C74.8223 8.69974 73.2972 7.1817 73.2972 5.35112C73.2972 3.52054 74.8223 2.00249 76.653 2.00249Z" fill="#26E0AA"/>
<path d="M72.2312 31.0147C71.3828 31.0147 70.5344 30.7022 69.8646 30.0324C68.5696 28.7376 68.5694 26.5945 69.8641 25.2997L92.1874 2.9755C93.4822 1.68069 95.6254 1.68069 96.9204 2.9755C98.2154 4.2703 98.2157 6.41343 96.9209 7.70823L74.5976 30.0324C73.9279 30.7022 73.0796 31.0147 72.2312 31.0147Z" fill="#26E0AA"/>
</svg>
