<svg width="100" height="100" viewBox="0 0 100 100" fill="none" xmlns="http://www.w3.org/2000/svg">
<path d="M28.4731 95.055C17.8512 95.055 9.14844 87.2605 9.14844 77.6639V68.4728C9.14844 66.6256 10.6659 65.0938 12.4957 65.0938C14.3255 65.0938 15.843 66.6256 15.843 68.4728C15.843 74.1046 21.243 78.3398 28.4731 78.3398C35.7032 78.3398 41.1036 74.1046 41.1036 68.4728C41.1036 66.6256 42.6209 65.0938 44.4508 65.0938C46.2806 65.0938 47.798 66.6256 47.798 68.4728V77.6639C47.798 87.2605 39.1398 95.055 28.4731 95.055ZM17.0031 82.0793C18.9669 85.7737 23.3853 88.2968 28.4731 88.2968C33.561 88.2968 37.9794 85.7287 39.9432 82.0793C36.7744 84.0166 32.8469 85.143 28.4731 85.143C24.0994 85.143 20.1719 84.0166 17.0031 82.0793Z" fill="#292D32"/>
<path d="M28.4731 72.7515C21.1538 72.7515 14.5933 69.3725 11.3353 64.011C9.90711 61.6681 9.14844 58.9198 9.14844 56.1265C9.14844 51.3957 11.2014 46.9804 14.9503 43.6914C22.1804 37.2938 34.6321 37.294 41.9068 43.6468C45.6558 46.9809 47.7534 51.3957 47.7534 56.1265C47.7534 58.9198 46.9947 61.6681 45.5665 64.011C42.3531 69.3725 35.7925 72.7515 28.4731 72.7515ZM28.4731 45.4936C24.992 45.4936 21.7787 46.665 19.3687 48.7826C17.0925 50.765 15.843 53.3781 15.843 56.1265C15.843 57.7034 16.2445 59.1455 17.0478 60.4972C19.1008 63.9213 23.4745 66.0384 28.4731 66.0384C33.4717 66.0384 37.8454 63.9213 39.8538 60.5422C40.6571 59.2357 41.0589 57.7484 41.0589 56.1715C41.0589 53.4232 39.8093 50.81 37.5332 48.7826C35.1678 46.665 31.9543 45.4936 28.4731 45.4936Z" fill="#292D32"/>
<path d="M28.4731 85.1424C17.4495 85.1424 9.14844 77.9788 9.14844 68.5173V56.1273C9.14844 46.5307 17.8065 38.7363 28.4731 38.7363C33.5164 38.7363 38.3365 40.4935 41.9515 43.6473C45.7004 46.9813 47.798 51.3966 47.798 56.1273V68.5173C47.798 77.9788 39.4968 85.1424 28.4731 85.1424ZM28.4731 45.4945C21.5108 45.4945 15.843 50.2703 15.843 56.1273V68.5173C15.843 74.1491 21.243 78.3842 28.4731 78.3842C35.7032 78.3842 41.1036 74.1491 41.1036 68.5173V56.1273C41.1036 53.379 39.854 50.7659 37.5779 48.7384C35.1679 46.6659 31.9543 45.4945 28.4731 45.4945Z" fill="#292D32"/>
<path d="M81.4421 59.2373C74.703 59.2373 68.9903 54.1912 68.4547 47.7034C68.0977 43.9639 69.4366 40.3145 72.1144 37.6562C74.3459 35.3134 77.5147 34.0068 80.8619 34.0068H90.1896C94.608 34.142 97.9999 37.6562 97.9999 41.9815V51.2627C97.9999 55.5879 94.608 59.1022 90.3235 59.2373H81.4421ZM90.0557 40.765H80.9066C79.3445 40.765 77.9163 41.3507 76.8898 42.432C75.5956 43.6935 74.9708 45.4056 75.1493 47.1177C75.3724 50.0913 78.2288 52.4792 81.4421 52.4792H90.1896C90.7698 52.4792 91.3054 51.9385 91.3054 51.2627V41.9815C91.3054 41.3057 90.7698 40.8101 90.0557 40.765Z" fill="#292D32"/>
<path d="M67.874 88.296H56.7165C54.8866 88.296 53.3692 86.7642 53.3692 84.917C53.3692 83.0697 54.8866 81.5379 56.7165 81.5379H67.874C79.3886 81.5379 86.8418 74.0138 86.8418 62.3897V59.2359H81.4416C74.7024 59.2359 68.9898 54.1898 68.4542 47.702C68.0972 43.9625 69.4365 40.3131 72.1143 37.6548C74.3458 35.3121 77.5141 34.0055 80.8614 34.0055H86.7972V30.8516C86.7972 20.3089 80.6833 13.055 70.7754 11.8836C69.7043 11.7034 68.7666 11.7035 67.8294 11.7035H27.6624C26.5912 11.7035 25.5647 11.7935 24.5382 11.9287C14.7196 13.1902 8.69453 20.399 8.69453 30.8516V39.8625C8.69453 41.7097 7.1771 43.2416 5.34726 43.2416C3.51743 43.2416 2 41.7097 2 39.8625V30.8516C2 16.9748 10.4799 6.92775 23.6458 5.26074C24.8508 5.08052 26.2342 4.94531 27.6624 4.94531H67.8294C68.9005 4.94531 70.2841 4.99037 71.7122 5.21564C84.8781 6.74749 93.4917 16.8397 93.4917 30.8516V37.3846C93.4917 39.2317 91.9743 40.7636 90.1445 40.7636H80.8614C79.2993 40.7636 77.8716 41.3493 76.8451 42.4306C75.5509 43.6921 74.9256 45.4042 75.1041 47.1163C75.3273 50.0899 78.184 52.4778 81.3974 52.4778H90.1891C92.0189 52.4778 93.5364 54.0096 93.5364 55.8568V62.3897C93.5364 77.8885 83.2268 88.296 67.874 88.296Z" fill="#292D32"/>
</svg>
