<svg width="100" height="100" viewBox="0 0 100 100" fill="none" xmlns="http://www.w3.org/2000/svg">
<path d="M28.4655 95.055C17.8438 95.055 9.14136 87.2605 9.14136 77.6639V68.4728C9.14136 66.6256 10.6587 65.0938 12.4885 65.0938C14.3183 65.0938 15.8357 66.6256 15.8357 68.4728C15.8357 74.1046 21.2356 78.3398 28.4655 78.3398C35.6953 78.3398 41.0955 74.1046 41.0955 68.4728C41.0955 66.6256 42.6128 65.0938 44.4426 65.0938C46.2724 65.0938 47.7898 66.6256 47.7898 68.4728V77.6639C47.7898 87.2605 39.1318 95.055 28.4655 95.055ZM16.9958 82.0793C18.9595 85.7737 23.3778 88.2968 28.4655 88.2968C33.5532 88.2968 37.9715 85.7287 39.9351 82.0793C36.7665 84.0166 32.8391 85.143 28.4655 85.143C24.0918 85.143 20.1645 84.0166 16.9958 82.0793Z" fill="white"/>
<path d="M28.4655 72.7515C21.1463 72.7515 14.586 69.3725 11.3281 64.011C9.9 61.6681 9.14136 58.9198 9.14136 56.1265C9.14136 51.3957 11.1942 46.9804 14.9431 43.6914C22.1729 37.2938 34.6243 37.294 41.8987 43.6468C45.6476 46.9809 47.7451 51.3957 47.7451 56.1265C47.7451 58.9198 46.9864 61.6681 45.5583 64.011C42.345 69.3725 35.7846 72.7515 28.4655 72.7515ZM28.4655 45.4936C24.9844 45.4936 21.7712 46.665 19.3613 48.7826C17.0852 50.765 15.8357 53.3781 15.8357 56.1265C15.8357 57.7034 16.2372 59.1455 17.0405 60.4972C19.0934 63.9213 23.467 66.0384 28.4655 66.0384C33.4639 66.0384 37.8375 63.9213 39.8458 60.5422C40.6491 59.2357 41.0508 57.7484 41.0508 56.1715C41.0508 53.4232 39.8013 50.81 37.5252 48.7826C35.1599 46.665 31.9465 45.4936 28.4655 45.4936Z" fill="white"/>
<path d="M28.4655 85.1424C17.4421 85.1424 9.14136 77.9788 9.14136 68.5173V56.1273C9.14136 46.5307 17.7992 38.7363 28.4655 38.7363C33.5085 38.7363 38.3285 40.4935 41.9434 43.6473C45.6922 46.9813 47.7898 51.3966 47.7898 56.1273V68.5173C47.7898 77.9788 39.4888 85.1424 28.4655 85.1424ZM28.4655 45.4945C21.5034 45.4945 15.8357 50.2703 15.8357 56.1273V68.5173C15.8357 74.1491 21.2356 78.3842 28.4655 78.3842C35.6953 78.3842 41.0955 74.1491 41.0955 68.5173V56.1273C41.0955 53.379 39.846 50.7659 37.5699 48.7384C35.16 46.6659 31.9465 45.4945 28.4655 45.4945Z" fill="white"/>
<path d="M81.4403 59.2373C74.7013 59.2373 68.9888 54.1912 68.4533 47.7034C68.0963 43.9639 69.4351 40.3145 72.1128 37.6562C74.3443 35.3134 77.5129 34.0068 80.8601 34.0068H90.1875C94.6058 34.142 97.9976 37.6562 97.9976 41.9815V51.2627C97.9976 55.5879 94.6058 59.1022 90.3214 59.2373H81.4403ZM90.0536 40.765H80.9047C79.3427 40.765 77.9146 41.3507 76.8881 42.432C75.5939 43.6935 74.9691 45.4056 75.1476 47.1177C75.3708 50.0913 78.227 52.4792 81.4403 52.4792H90.1875C90.7677 52.4792 91.3032 51.9385 91.3032 51.2627V41.9815C91.3032 41.3057 90.7677 40.8101 90.0536 40.765Z" fill="white"/>
<path d="M67.8745 88.296H56.7173C54.8875 88.296 53.3701 86.7642 53.3701 84.917C53.3701 83.0697 54.8875 81.5379 56.7173 81.5379H67.8745C79.3887 81.5379 86.8417 74.0138 86.8417 62.3897V59.2359H81.4416C74.7027 59.2359 68.9902 54.1898 68.4546 47.702C68.0976 43.9625 69.4369 40.3131 72.1147 37.6548C74.3461 35.3121 77.5143 34.0055 80.8615 34.0055H86.7971V30.8516C86.7971 20.3089 80.6834 13.055 70.7758 11.8836C69.7047 11.7034 68.7671 11.7035 67.8298 11.7035H27.664C26.5929 11.7035 25.5664 11.7935 24.54 11.9287C14.7216 13.1902 8.69677 20.399 8.69677 30.8516V39.8625C8.69677 41.7097 7.17939 43.2416 5.3496 43.2416C3.51982 43.2416 2.00244 41.7097 2.00244 39.8625V30.8516C2.00244 16.9748 10.4821 6.92775 23.6476 5.26074C24.8526 5.08052 26.2359 4.94531 27.664 4.94531H67.8298C68.9009 4.94531 70.2844 4.99037 71.7126 5.21564C84.8781 6.74749 93.4914 16.8397 93.4914 30.8516V37.3846C93.4914 39.2317 91.974 40.7636 90.1443 40.7636H80.8615C79.2995 40.7636 77.8718 41.3493 76.8453 42.4306C75.5511 43.6921 74.9258 45.4042 75.1043 47.1163C75.3275 50.0899 78.1842 52.4778 81.3975 52.4778H90.1889C92.0187 52.4778 93.5361 54.0096 93.5361 55.8568V62.3897C93.5361 77.8885 83.2268 88.296 67.8745 88.296Z" fill="white"/>
</svg>
